<svg version="1.1" viewBox="0.0 0.0 302.37532808398953 381.66141732283467" fill="none" stroke="none" stroke-linecap="square" stroke-miterlimit="10" xmlns:xlink="http://www.w3.org/1999/xlink" xmlns="http://www.w3.org/2000/svg"><clipPath id="p.0"><path d="m0 0l302.37534 0l0 381.6614l-302.37534 0l0 -381.6614z" clip-rule="nonzero"/></clipPath><g clip-path="url(#p.0)"><path fill="#000000" fill-opacity="0.0" d="m0 0l302.37534 0l0 381.6614l-302.37534 0z" fill-rule="evenodd"/><path fill="#c9daf8" d="m-0.001312336 3.4226406l0 0c0 -1.8902721 1.5323684 -3.4226406 3.4226406 -3.4226406l65.65866 0c0.90773773 0 1.7782974 0.3605986 2.4201736 1.0024682c0.6418686 0.64186966 1.0024643 1.5124317 1.0024643 2.4201722l0 13.690152c0 1.8902721 -1.5323715 3.4226398 -3.422638 3.4226398l-65.65866 0c-1.8902723 0 -3.4226406 -1.5323677 -3.4226406 -3.4226398z" fill-rule="evenodd"/><path stroke="#595959" stroke-width="1.0" stroke-linejoin="round" stroke-linecap="butt" d="m-0.001312336 3.4226406l0 0c0 -1.8902721 1.5323684 -3.4226406 3.4226406 -3.4226406l65.65866 0c0.90773773 0 1.7782974 0.3605986 2.4201736 1.0024682c0.6418686 0.64186966 1.0024643 1.5124317 1.0024643 2.4201722l0 13.690152c0 1.8902721 -1.5323715 3.4226398 -3.422638 3.4226398l-65.65866 0c-1.8902723 0 -3.4226406 -1.5323677 -3.4226406 -3.4226398z" fill-rule="evenodd"/><path fill="#000000" d="m21.678894 5.317715q1.390625 0 2.421875 0.65625q1.03125 0.640625 1.578125 1.796875q0.5625 1.1562505 0.5625 2.5468755q0 1.0625 -0.359375 2.046875q-0.34375 0.984375 -1.078125 1.734375l1.25 1.0l-0.640625 0.796875l-1.453125 -1.171875q-0.484375 0.28125 -1.046875 0.421875q-0.5625 0.15625 -1.234375 0.15625q-1.375 0 -2.40625 -0.640625q-1.03125 -0.640625 -1.59375 -1.796875q-0.5625 -1.15625 -0.5625 -2.546875q0 -2.171875 1.25 -3.5781255q1.25 -1.421875 3.3125 -1.421875zm-3.296875 5.0000005q0 1.046875 0.390625 1.96875q0.390625 0.921875 1.140625 1.4375q0.75 0.5 1.765625 0.5q0.359375 0 0.6875 -0.0625q0.328125 -0.0625 0.640625 -0.203125l-1.0625 -0.84375l0.671875 -0.765625l1.265625 1.015625q0.53125 -0.53125 0.8125 -1.3125q0.28125 -0.796875 0.28125 -1.734375q0 -1.703125 -0.875 -2.8125005q-0.875 -1.109375 -2.4375 -1.109375q-1.53125 0 -2.40625 1.125q-0.875 1.1093755 -0.875 2.7968755zm10.345001 -2.140625l0 4.703125q0 0.578125 0.375 0.96875q0.375 0.375 1.03125 0.375q0.96875 0 1.5 -0.59375q0.53125 -0.59375 0.53125 -1.515625l0 -3.9375l1.140625 0l0 6.890625l-1.0625 0l0 -1.09375l-0.03125 0q-0.375 0.65625 -0.953125 0.953125q-0.5625 0.296875 -1.296875 0.296875q-1.203125 0 -1.78125 -0.609375q-0.578125 -0.625 -0.578125 -1.84375l0 -4.59375l1.125 0zm9.146851 -0.15625q1.484375 0 2.296875 1.078125q0.828125 1.0625 0.828125 2.734375l0 0.125l-5.171875 0l0 0.09375q0 0.984375 0.578125 1.578125q0.578125 0.59375 1.578125 0.59375q0.75 0 1.1875 -0.34375q0.453125 -0.359375 0.59375 -1.0l1.125 0q-0.234375 1.140625 -1.015625 1.75q-0.765625 0.59375 -1.9375 0.59375q-1.078125 0 -1.828125 -0.484375q-0.75 -0.484375 -1.109375 -1.359375q-0.359375 -0.890625 -0.359375 -1.796875q0 -1.53125 0.90625 -2.546875q0.921875 -1.015625 2.328125 -1.015625zm-2.046875 2.9375l3.96875 0q-0.0625 -0.84375 -0.625 -1.390625q-0.546875 -0.546875 -1.375 -0.546875q-0.78125 0 -1.34375 0.53125q-0.546875 0.515625 -0.625 1.40625zm7.471161 -2.78125l0 4.703125q0 0.578125 0.375 0.96875q0.375 0.375 1.03125 0.375q0.96875 0 1.5 -0.59375q0.53125 -0.59375 0.53125 -1.515625l0 -3.9375l1.140625 0l0 6.890625l-1.0625 0l0 -1.09375l-0.03125 0q-0.375 0.65625 -0.953125 0.953125q-0.5625 0.296875 -1.296875 0.296875q-1.203125 0 -1.78125 -0.609375q-0.578125 -0.625 -0.578125 -1.84375l0 -4.59375l1.125 0zm9.146851 -0.15625q1.484375 0 2.296875 1.078125q0.828125 1.0625 0.828125 2.734375l0 0.125l-5.171875 0l0 0.09375q0 0.984375 0.578125 1.578125q0.578125 0.59375 1.578125 0.59375q0.75 0 1.1875 -0.34375q0.453125 -0.359375 0.59375 -1.0l1.125 0q-0.234375 1.140625 -1.015625 1.75q-0.765625 0.59375 -1.9375 0.59375q-1.078125 0 -1.828125 -0.484375q-0.75 -0.484375 -1.109375 -1.359375q-0.359375 -0.890625 -0.359375 -1.796875q0 -1.53125 0.90625 -2.546875q0.921875 -1.015625 2.328125 -1.015625zm-2.046875 2.9375l3.96875 0q-0.0625 -0.84375 -0.625 -1.390625q-0.546875 -0.546875 -1.375 -0.546875q-0.78125 0 -1.34375 0.53125q-0.546875 0.515625 -0.625 1.40625z" fill-rule="nonzero"/><path fill="#c9daf8" d="m37.119423 41.105057l0 0c0 -1.890274 1.5323677 -3.4226418 3.4226418 -3.4226418l73.06023 0c0.90773773 0 1.778305 0.36059952 2.4201736 1.0024681c0.6418686 0.6418686 1.0024643 1.5124321 1.0024643 2.4201736l0 13.690151c0 1.8902702 -1.5323639 3.422638 -3.422638 3.422638l-73.06023 0c-1.890274 0 -3.4226418 -1.5323677 -3.4226418 -3.422638z" fill-rule="evenodd"/><path stroke="#595959" stroke-width="1.0" stroke-linejoin="round" stroke-linecap="butt" d="m37.119423 41.105057l0 0c0 -1.890274 1.5323677 -3.4226418 3.4226418 -3.4226418l73.06023 0c0.90773773 0 1.778305 0.36059952 2.4201736 1.0024681c0.6418686 0.6418686 1.0024643 1.5124321 1.0024643 2.4201736l0 13.690151c0 1.8902702 -1.5323639 3.422638 -3.422638 3.422638l-73.06023 0c-1.890274 0 -3.4226418 -1.5323677 -3.4226418 -3.422638z" fill-rule="evenodd"/><path fill="#000000" d="m53.156727 43.00013q1.59375 0 2.515625 0.78125q0.9375 0.765625 1.0 2.234375l-1.203125 0q-0.109375 -0.96875 -0.703125 -1.453125q-0.59375 -0.484375 -1.65625 -0.484375q-1.015625 0 -1.578125 0.421875q-0.5625 0.421875 -0.5625 1.203125q0 0.546875 0.46875 0.90625q0.484375 0.359375 2.59375 0.78125q1.515625 0.3125 2.265625 0.96875q0.765625 0.640625 0.765625 1.78125q0 1.328125 -1.09375 2.09375q-1.078125 0.75 -2.625 0.75q-1.734375 0 -2.828125 -0.859375q-1.09375 -0.875 -1.09375 -2.5l1.1875 0q0.015625 1.078125 0.78125 1.6875q0.765625 0.59375 2.0 0.59375q1.140625 0 1.765625 -0.4375q0.640625 -0.453125 0.640625 -1.296875q0 -0.671875 -0.578125 -1.078125q-0.578125 -0.40625 -2.09375 -0.703125q-2.03125 -0.390625 -2.734375 -1.0q-0.6875 -0.609375 -0.6875 -1.59375q0 -1.28125 0.96875 -2.03125q0.984375 -0.765625 2.484375 -0.765625zm8.073456 2.703125q1.40625 0 1.984375 0.5q0.59375 0.5 0.59375 1.34375q0 3.578125 0 3.96875q0 0.390625 0.3593788 0.390625q0.078125 0 0.171875 -0.015625q0.09375 -0.015625 0.171875 -0.046875l0 0.875q-0.15625 0.09375 -0.359375 0.140625q-0.20312881 0.046875 -0.4375038 0.046875q-0.46875 0 -0.71875 -0.25q-0.25 -0.265625 -0.25 -0.8125q-0.453125 0.53125 -1.0625 0.796875q-0.609375 0.265625 -1.359375 0.265625q-1.078125 0 -1.6875 -0.5q-0.59375 -0.5 -0.59375 -1.421875q0 -0.9375 0.59375 -1.46875q0.59375 -0.546875 2.78125 -0.828125q0.734375 -0.09375 1.0 -0.28125q0.265625 -0.1875 0.265625 -0.5625q0 -0.578125 -0.375 -0.859375q-0.359375 -0.28125 -1.15625 -0.28125q-0.84375 0 -1.265625 0.3125q-0.421875 0.3125 -0.453125 0.984375l-1.125 0q0.046875 -1.140625 0.796875 -1.71875q0.765625 -0.578125 2.125 -0.578125zm-2.0 5.1875q0 0.484375 0.34375 0.75q0.359375 0.265625 1.0 0.265625q0.953125 0 1.515625 -0.46875q0.578125 -0.484375 0.578125 -1.0625l0 -1.1875q-0.28125 0.203125 -0.734375 0.28125q-0.453125 0.0625 -1.21875 0.171875q-0.75 0.109375 -1.125 0.40625q-0.359375 0.296875 -0.359375 0.84375zm9.658665 -5.1875q0.75 0 1.234375 0.3125q0.484375 0.296875 0.65625 0.859375q0.359375 -0.5625 0.921875 -0.859375q0.5625 -0.3125 1.25 -0.3125q1.15625 0 1.71875 0.53125q0.5625 0.515625 0.5625 1.421875l0 5.09375l-1.125 0l0 -4.5625q0 -0.75 -0.328125 -1.109375q-0.3125 -0.375 -1.015625 -0.375q-0.84375 0 -1.328125 0.5q-0.46875 0.484375 -0.46875 1.21875l0 4.328125l-1.140625 0l0 -4.5625q0 -0.75 -0.3125 -1.109375q-0.3125 -0.375 -0.96875 -0.375q-0.546875 0 -0.96875 0.265625q-0.40625 0.25 -0.640625 0.703125q-0.234375 0.453125 -0.234375 0.765625l0 4.3125l-1.125 0l0 -6.890625l1.0625 0l0 1.015625l0.03125 0q0.390625 -0.59375 0.9375 -0.875q0.546875 -0.296875 1.28125 -0.296875zm11.447388 0q1.484375 0 2.328125 1.015625q0.84375 1.015625 0.84375 2.609375q0 1.59375 -0.84375 2.59375q-0.84375 0.984375 -2.296875 0.984375q-0.640625 0 -1.265625 -0.265625q-0.609375 -0.265625 -0.96875 -0.8125l-0.015625 0l0 3.5625l-1.140625 0l0 -9.53125l1.140625 0l0 0.9375l0.015625 0q0.265625 -0.53125 0.84375 -0.8125q0.578125 -0.28125 1.359375 -0.28125zm-2.265625 3.59375q0 1.203125 0.578125 1.90625q0.578125 0.703125 1.59375 0.703125q0.984375 0 1.515625 -0.703125q0.546875 -0.703125 0.546875 -1.953125q0 -1.109375 -0.578125 -1.828125q-0.5625 -0.71875 -1.5625 -0.71875q-1.0 0 -1.546875 0.734375q-0.546875 0.71875 -0.546875 1.859375zm7.9630585 -6.0625l0 9.515625l-1.125 0l0 -9.515625l1.125 0zm4.632965 2.46875q1.484375 0 2.296875 1.078125q0.828125 1.0625 0.828125 2.734375l0 0.125l-5.171875 0l0 0.09375q0 0.984375 0.578125 1.578125q0.578125 0.59375 1.578125 0.59375q0.75 0 1.1875 -0.34375q0.453125 -0.359375 0.59375 -1.0l1.125 0q-0.234375 1.140625 -1.015625 1.75q-0.765625 0.59375 -1.9375 0.59375q-1.078125 0 -1.828125 -0.484375q-0.75 -0.484375 -1.109375 -1.359375q-0.359375 -0.890625 -0.359375 -1.796875q0 -1.53125 0.90625 -2.546875q0.921875 -1.015625 2.328125 -1.015625zm-2.046875 2.9375l3.96875 0q-0.0625 -0.84375 -0.625 -1.390625q-0.546875 -0.546875 -1.375 -0.546875q-0.78125 0 -1.34375 0.53125q-0.546875 0.515625 -0.625 1.40625zm13.939774 -5.34375l0 9.453125l-1.140625 0l0 -6.765625l-2.453125 0l0 -0.90625l0.046875 0q1.1875 0 1.84375 -0.421875q0.65625 -0.4375 0.828125 -1.359375l0.875 0z" fill-rule="nonzero"/><path fill="#c9daf8" d="m96.50246 298.93576l0 0c0 -1.8902588 1.5323715 -3.422638 3.422638 -3.422638l73.06024 0c0.9077301 0 1.7782898 0.3605957 2.420166 1.0024719c0.6418762 0.6418762 1.0024719 1.5124207 1.0024719 2.420166l0 13.690155c0 1.8902588 -1.5323792 3.422638 -3.422638 3.422638l-73.06024 0c-1.8902664 0 -3.422638 -1.5323792 -3.422638 -3.422638z" fill-rule="evenodd"/><path stroke="#595959" stroke-width="1.0" stroke-linejoin="round" stroke-linecap="butt" d="m96.50246 298.93576l0 0c0 -1.8902588 1.5323715 -3.422638 3.422638 -3.422638l73.06024 0c0.9077301 0 1.7782898 0.3605957 2.420166 1.0024719c0.6418762 0.6418762 1.0024719 1.5124207 1.0024719 2.420166l0 13.690155c0 1.8902588 -1.5323792 3.422638 -3.422638 3.422638l-73.06024 0c-1.8902664 0 -3.422638 -1.5323792 -3.422638 -3.422638z" fill-rule="evenodd"/><path fill="#000000" d="m116.26202 300.83084q1.6875 0 2.765625 0.8125q1.078125 0.8125 1.328125 2.34375l-1.265625 0q-0.1875 -1.0 -0.9375 -1.53125q-0.734375 -0.546875 -1.890625 -0.546875q-1.53125 0 -2.40625 1.125q-0.859375 1.125 -0.859375 2.90625q0 1.640625 0.890625 2.71875q0.90625 1.078125 2.375 1.078125q1.359375 0 2.203125 -0.8125q0.84375 -0.828125 0.84375 -2.140625l0 -0.140625l-3.046875 0l0 -1.078125l4.171875 0l0 5.015625l-0.78125 0l-0.34375 -1.1875q-0.515625 0.6875 -1.328125 1.0625q-0.796875 0.359375 -1.71875 0.359375q-1.953125 0 -3.25 -1.390625q-1.28125 -1.40625 -1.28125 -3.421875q0 -2.25 1.21875 -3.703125q1.21875 -1.46875 3.3125 -1.46875zm9.28511 2.703125q0.046875 0 0.078125 0q0.03125 0 0.078125 0l0 1.203125q-1.28125 0 -1.890625 0.671875q-0.59375 0.671875 -0.59375 2.09375l0 3.078125l-1.140625 0l0 -6.890625l1.0625 0l0 1.453125l0.03125 0q0.390625 -0.828125 0.96875 -1.21875q0.59375 -0.390625 1.40625 -0.390625zm3.7443466 0q1.5625 0 2.453125 1.015625q0.890625 1.0 0.890625 2.59375q0 1.609375 -0.921875 2.609375q-0.90625 0.984375 -2.421875 0.984375q-1.4999924 0 -2.4218674 -0.96875q-0.921875 -0.984375 -0.921875 -2.625q0 -1.640625 0.90625 -2.625q0.90625 -0.984375 2.4374924 -0.984375zm-2.1562424 3.609375q0 1.1875 0.609375 1.890625q0.6093674 0.703125 1.5468674 0.703125q0.921875 0 1.53125 -0.703125q0.609375 -0.71875 0.609375 -1.890625q0 -1.171875 -0.609375 -1.890625q-0.59375 -0.71875 -1.546875 -0.71875q-0.90625 0 -1.5312424 0.703125q-0.609375 0.703125 -0.609375 1.90625zm7.9657516 -3.453125l0 4.703125q0 0.578125 0.375 0.96875q0.375 0.375 1.03125 0.375q0.96875 0 1.5 -0.59375q0.53125 -0.59375 0.53125 -1.515625l0 -3.9375l1.140625 0l0 6.890625l-1.0625 0l0 -1.09375l-0.03125 0q-0.375 0.65625 -0.953125 0.953125q-0.5625 0.296875 -1.296875 0.296875q-1.203125 0 -1.78125 -0.609375q-0.578125 -0.625 -0.578125 -1.84375l0 -4.59375l1.125 0zm9.678101 -0.15625q1.484375 0 2.328125 1.015625q0.84375 1.015625 0.84375 2.609375q0 1.59375 -0.84375 2.59375q-0.84375 0.984375 -2.296875 0.984375q-0.640625 0 -1.265625 -0.265625q-0.609375 -0.265625 -0.96875 -0.8125l-0.015625 0l0 3.5625l-1.140625 0l0 -9.53125l1.140625 0l0 0.9375l0.015625 0q0.265625 -0.53125 0.84375 -0.8125q0.578125 -0.28125 1.359375 -0.28125zm-2.265625 3.59375q0 1.203125 0.578125 1.90625q0.578125 0.703125 1.59375 0.703125q0.984375 0 1.515625 -0.703125q0.546875 -0.703125 0.546875 -1.953125q0 -1.109375 -0.578125 -1.828125q-0.5625 -0.71875 -1.5625 -0.71875q-1.0 0 -1.546875 0.734375q-0.546875 0.71875 -0.546875 1.859375zm11.994171 -6.0625l5.015625 7.71875l0.015625 0l0 -7.71875l1.203125 0l0 9.515625l-1.390625 0l-4.96875 -7.640625l-0.03125 0l0 7.640625l-1.1875 0l0 -9.515625l1.34375 0z" fill-rule="nonzero"/><path fill="#c9daf8" d="m96.502625 74.791405l0 0c0 -1.8902664 1.5323715 -3.422638 3.422638 -3.422638l73.06023 0c0.90774536 0 1.778305 0.3605957 2.4201813 1.0024643c0.64186096 0.6418762 1.0024719 1.5124359 1.0024719 2.4201736l0 13.690155c0 1.890274 -1.5323792 3.422638 -3.4226532 3.422638l-73.06023 0c-1.8902664 0 -3.422638 -1.5323639 -3.422638 -3.422638z" fill-rule="evenodd"/><path stroke="#595959" stroke-width="1.0" stroke-linejoin="round" stroke-linecap="butt" d="m96.502625 74.791405l0 0c0 -1.8902664 1.5323715 -3.422638 3.422638 -3.422638l73.06023 0c0.90774536 0 1.778305 0.3605957 2.4201813 1.0024643c0.64186096 0.6418762 1.0024719 1.5124359 1.0024719 2.4201736l0 13.690155c0 1.890274 -1.5323792 3.422638 -3.4226532 3.422638l-73.06023 0c-1.8902664 0 -3.422638 -1.5323639 -3.422638 -3.422638z" fill-rule="evenodd"/><path fill="#000000" d="m117.36852 76.686485q1.6875 0 2.765625 0.8125q1.078125 0.8125 1.328125 2.34375l-1.265625 0q-0.1875 -1.0 -0.9375 -1.53125q-0.734375 -0.546875 -1.890625 -0.546875q-1.53125 0 -2.40625 1.125q-0.859375 1.125 -0.859375 2.90625q0 1.640625 0.890625 2.71875q0.90625 1.078125 2.375 1.078125q1.359375 0 2.203125 -0.8125q0.84375 -0.828125 0.84375 -2.140625l0 -0.140625l-3.046875 0l0 -1.078125l4.171875 0l0 5.015625l-0.78125 0l-0.34375 -1.1875q-0.515625 0.6875 -1.328125 1.0625q-0.796875 0.359375 -1.71875 0.359375q-1.953125 0 -3.25 -1.390625q-1.28125 -1.40625 -1.28125 -3.421875q0 -2.25 1.21875 -3.703125q1.21875 -1.46875 3.3125 -1.46875zm9.28511 2.703125q0.046875 0 0.078125 0q0.03125 0 0.078125 0l0 1.203125q-1.28125 0 -1.890625 0.671875q-0.59375 0.671875 -0.59375 2.09375l0 3.078125l-1.140625 0l0 -6.890625l1.0625 0l0 1.453125l0.03125 0q0.390625 -0.828125 0.96875 -1.21875q0.59375 -0.390625 1.40625 -0.390625zm3.7443466 0q1.5625 0 2.453125 1.015625q0.890625 1.0 0.890625 2.59375q0 1.609375 -0.921875 2.609375q-0.90625 0.984375 -2.421875 0.984375q-1.5 0 -2.4218674 -0.96875q-0.921875 -0.984375 -0.921875 -2.625q0 -1.640625 0.90625 -2.625q0.9062424 -0.984375 2.4374924 -0.984375zm-2.15625 3.609375q0 1.1875 0.609375 1.890625q0.609375 0.703125 1.546875 0.703125q0.921875 0 1.53125 -0.703125q0.609375 -0.71875 0.609375 -1.890625q0 -1.171875 -0.609375 -1.890625q-0.59375 -0.71875 -1.546875 -0.71875q-0.90625 0 -1.53125 0.703125q-0.609375 0.703125 -0.609375 1.90625zm7.9657593 -3.453125l0 4.703125q0 0.578125 0.375 0.96875q0.375 0.375 1.03125 0.375q0.96875 0 1.5 -0.59375q0.53125 -0.59375 0.53125 -1.515625l0 -3.9375l1.140625 0l0 6.890625l-1.0625 0l0 -1.09375l-0.03125 0q-0.375 0.65625 -0.953125 0.953125q-0.5625 0.296875 -1.296875 0.296875q-1.203125 0 -1.78125 -0.609375q-0.578125 -0.625 -0.578125 -1.84375l0 -4.59375l1.125 0zm9.678101 -0.15625q1.484375 0 2.328125 1.015625q0.84375 1.015625 0.84375 2.609375q0 1.59375 -0.84375 2.59375q-0.84375 0.984375 -2.296875 0.984375q-0.640625 0 -1.265625 -0.265625q-0.609375 -0.265625 -0.96875 -0.8125l-0.015625 0l0 3.5625l-1.140625 0l0 -9.53125l1.140625 0l0 0.9375l0.015625 0q0.265625 -0.53125 0.84375 -0.8125q0.578125 -0.28125 1.359375 -0.28125zm-2.265625 3.59375q0 1.203125 0.578125 1.90625q0.578125 0.703125 1.59375 0.703125q0.984375 0 1.515625 -0.703125q0.546875 -0.703125 0.546875 -1.953125q0 -1.109375 -0.578125 -1.828125q-0.5625 -0.71875 -1.5625 -0.71875q-1.0 0 -1.546875 0.734375q-0.546875 0.71875 -0.546875 1.859375zm14.369171 -6.0l0 9.453125l-1.140625 0l0 -6.765625l-2.453125 0l0 -0.90625l0.046875 0q1.1875 0 1.84375 -0.421875q0.65625 -0.4375 0.828125 -1.359375l0.875 0z" fill-rule="nonzero"/><path fill="#c9daf8" d="m157.02493 108.480385l0 0c0 -1.890274 1.5323639 -3.4226456 3.422638 -3.4226456l122.1626 0c0.90774536 0 1.7782898 0.36060333 2.420166 1.0024719c0.6418762 0.6418686 1.0024719 1.5124283 1.0024719 2.4201736l0 13.690147c0 1.890274 -1.5323792 3.4226456 -3.422638 3.4226456l-122.1626 0c-1.890274 0 -3.422638 -1.5323715 -3.422638 -3.4226456z" fill-rule="evenodd"/><path stroke="#595959" stroke-width="1.0" stroke-linejoin="round" stroke-linecap="butt" d="m157.02493 108.480385l0 0c0 -1.890274 1.5323639 -3.4226456 3.422638 -3.4226456l122.1626 0c0.90774536 0 1.7782898 0.36060333 2.420166 1.0024719c0.6418762 0.6418686 1.0024719 1.5124283 1.0024719 2.4201736l0 13.690147c0 1.890274 -1.5323792 3.4226456 -3.422638 3.4226456l-122.1626 0c-1.890274 0 -3.422638 -1.5323715 -3.422638 -3.4226456z" fill-rule="evenodd"/><path fill="#000000" d="m175.9071 110.60983q2.171875 0 3.328125 1.15625q1.171875 1.140625 1.171875 3.375q0 2.515625 -1.15625 3.75q-1.15625 1.234375 -3.34375 1.234375l-3.328125 0l0 -9.515625l3.328125 0zm0.078125 8.453125q1.4375 0 2.296875 -0.921875q0.859375 -0.9375 0.859375 -2.828125q0 -1.890625 -0.78125 -2.765625q-0.78125 -0.875 -2.328125 -0.875l-2.203125 0l0 7.390625l2.15625 0zm8.603104 -5.984375q1.40625 0 1.984375 0.5q0.59375 0.5 0.59375 1.34375q0 3.578125 0 3.96875q0 0.390625 0.359375 0.390625q0.078125 0 0.171875 -0.015625q0.09375 -0.015625 0.171875 -0.046875l0 0.875q-0.15625 0.09375 -0.359375 0.140625q-0.203125 0.046875 -0.4375 0.046875q-0.46875 0 -0.71875 -0.25q-0.25 -0.265625 -0.25 -0.8125q-0.453125 0.53125 -1.0625 0.796875q-0.609375 0.265625 -1.359375 0.265625q-1.078125 0 -1.6875 -0.5q-0.59375 -0.5 -0.59375 -1.421875q0 -0.9375 0.59375 -1.46875q0.59375 -0.546875 2.78125 -0.828125q0.734375 -0.09375 1.0 -0.28125q0.265625 -0.1875 0.265625 -0.5625q0 -0.578125 -0.375 -0.859375q-0.359375 -0.28125 -1.15625 -0.28125q-0.84375 0 -1.265625 0.3125q-0.421875 0.3125 -0.453125 0.984375l-1.125 0q0.046875 -1.140625 0.796875 -1.71875q0.765625 -0.578125 2.125 -0.578125zm-2.0 5.1875q0 0.484375 0.34375 0.75q0.359375 0.265625 1.0 0.265625q0.953125 0 1.515625 -0.46875q0.578125 -0.484375 0.578125 -1.0625l0 -1.1875q-0.28125 0.203125 -0.734375 0.28125q-0.453125 0.0625 -1.21875 0.171875q-0.75 0.109375 -1.125 0.40625q-0.359375 0.296875 -0.359375 0.84375zm7.908661 -7.09375l0 2.0625l1.375 0l0 1.0l-1.375 0l0 4.3125q0 0.515625 0.34375 0.546875q0.34375 0.03125 0.71875 0.03125l0.3125 0l0 1.0l-0.9375 0q-0.921875 0 -1.25 -0.328125q-0.3125 -0.328125 -0.3125 -1.109375l0 -4.453125l-1.1875 0l0 -1.0l1.1875 0l0 -2.0625l1.125 0zm5.447586 1.90625q1.40625 0 1.984375 0.5q0.59375 0.5 0.59375 1.34375q0 3.578125 0 3.96875q0 0.390625 0.359375 0.390625q0.078125 0 0.171875 -0.015625q0.09375 -0.015625 0.171875 -0.046875l0 0.875q-0.15625 0.09375 -0.359375 0.140625q-0.203125 0.046875 -0.4375 0.046875q-0.46875 0 -0.71875 -0.25q-0.25 -0.265625 -0.25 -0.8125q-0.453125 0.53125 -1.0625 0.796875q-0.609375 0.265625 -1.359375 0.265625q-1.078125 0 -1.6875 -0.5q-0.59375 -0.5 -0.59375 -1.421875q0 -0.9375 0.59375 -1.46875q0.59375 -0.546875 2.78125 -0.828125q0.734375 -0.09375 1.0 -0.28125q0.265625 -0.1875 0.265625 -0.5625q0 -0.578125 -0.375 -0.859375q-0.359375 -0.28125 -1.15625 -0.28125q-0.84375 0 -1.265625 0.3125q-0.421875 0.3125 -0.453125 0.984375l-1.125 0q0.046875 -1.140625 0.796875 -1.71875q0.765625 -0.578125 2.125 -0.578125zm-2.0 5.1875q0 0.484375 0.34375 0.75q0.359375 0.265625 1.0 0.265625q0.953125 0 1.515625 -0.46875q0.578125 -0.484375 0.578125 -1.0625l0 -1.1875q-0.28125 0.203125 -0.734375 0.28125q-0.453125 0.0625 -1.21875 0.171875q-0.75 0.109375 -1.125 0.40625q-0.359375 0.296875 -0.359375 0.84375zm12.924149 -5.1875q1.25 0 2.03125 0.609375q0.796875 0.59375 0.9375 1.765625l-1.171875 0q-0.140625 -0.671875 -0.59375 -1.015625q-0.4375 -0.359375 -1.109375 -0.359375q-1.0625 0 -1.609375 0.703125q-0.546875 0.703125 -0.546875 1.984375q0 1.140625 0.546875 1.828125q0.546875 0.6875 1.46875 0.6875q0.828125 0 1.296875 -0.4375q0.484375 -0.453125 0.59375 -1.234375l1.15625 0q-0.1875 1.28125 -0.96875 1.984375q-0.78125 0.6875 -2.0625 0.6875q-1.5 0 -2.359375 -0.9375q-0.859375 -0.953125 -0.859375 -2.578125q0 -1.6875 0.859375 -2.6875q0.875 -1.0 2.390625 -1.0zm7.252411 0q1.5625 0 2.453125 1.015625q0.890625 1.0 0.890625 2.59375q0 1.609375 -0.921875 2.609375q-0.90625 0.984375 -2.421875 0.984375q-1.5 0 -2.421875 -0.96875q-0.921875 -0.984375 -0.921875 -2.625q0 -1.640625 0.90625 -2.625q0.90625 -0.984375 2.4375 -0.984375zm-2.15625 3.609375q0 1.1875 0.609375 1.890625q0.609375 0.703125 1.546875 0.703125q0.921875 0 1.53125 -0.703125q0.609375 -0.71875 0.609375 -1.890625q0 -1.171875 -0.609375 -1.890625q-0.59375 -0.71875 -1.546875 -0.71875q-0.90625 0 -1.53125 0.703125q-0.609375 0.703125 -0.609375 1.90625zm8.028259 -6.078125l0 9.515625l-1.125 0l0 -9.515625l1.125 0zm2.96109 0l0 9.515625l-1.125 0l0 -9.515625l1.125 0zm4.632965 2.46875q1.484375 0 2.296875 1.078125q0.828125 1.0625 0.828125 2.734375l0 0.125l-5.171875 0l0 0.09375q0 0.984375 0.578125 1.578125q0.578125 0.59375 1.578125 0.59375q0.75 0 1.1875 -0.34375q0.453125 -0.359375 0.59375 -1.0l1.125 0q-0.234375 1.140625 -1.015625 1.75q-0.765625 0.59375 -1.9375 0.59375q-1.078125 0 -1.828125 -0.484375q-0.75 -0.484375 -1.109375 -1.359375q-0.359375 -0.890625 -0.359375 -1.796875q0 -1.53125 0.90625 -2.546875q0.921875 -1.015625 2.328125 -1.015625zm-2.046875 2.9375l3.96875 0q-0.0625 -0.84375 -0.625 -1.390625q-0.546875 -0.546875 -1.375 -0.546875q-0.78125 0 -1.34375 0.53125q-0.546875 0.515625 -0.625 1.40625zm9.221161 -2.9375q1.25 0 2.03125 0.609375q0.796875 0.59375 0.9375 1.765625l-1.171875 0q-0.140625 -0.671875 -0.59375 -1.015625q-0.4375 -0.359375 -1.109375 -0.359375q-1.0625 0 -1.609375 0.703125q-0.546875 0.703125 -0.546875 1.984375q0 1.140625 0.546875 1.828125q0.546875 0.6875 1.46875 0.6875q0.828125 0 1.296875 -0.4375q0.484375 -0.453125 0.59375 -1.234375l1.15625 0q-0.1875 1.28125 -0.96875 1.984375q-0.78125 0.6875 -2.0625 0.6875q-1.5 0 -2.359375 -0.9375q-0.859375 -0.953125 -0.859375 -2.578125q0 -1.6875 0.859375 -2.6875q0.875 -1.0 2.390625 -1.0zm5.846161 -1.90625l0 2.0625l1.375 0l0 1.0l-1.375 0l0 4.3125q0 0.515625 0.34375 0.546875q0.34375 0.03125 0.71875 0.03125l0.3125 0l0 1.0l-0.9375 0q-0.921875 0 -1.25 -0.328125q-0.3125 -0.328125 -0.3125 -1.109375l0 -4.453125l-1.1875 0l0 -1.0l1.1875 0l0 -2.0625l1.125 0zm3.822586 -0.5625l0 1.390625l-1.125 0l0 -1.390625l1.125 0zm0 2.625l0 6.890625l-1.125 0l0 -6.890625l1.125 0zm4.74234 -0.15625q1.5625 0 2.453125 1.015625q0.890625 1.0 0.890625 2.59375q0 1.609375 -0.921875 2.609375q-0.90625 0.984375 -2.421875 0.984375q-1.5 0 -2.421875 -0.96875q-0.921875 -0.984375 -0.921875 -2.625q0 -1.640625 0.90625 -2.625q0.90625 -0.984375 2.4375 -0.984375zm-2.15625 3.609375q0 1.1875 0.609375 1.890625q0.609375 0.703125 1.546875 0.703125q0.921875 0 1.53125 -0.703125q0.609375 -0.71875 0.609375 -1.890625q0 -1.171875 -0.609375 -1.890625q-0.59375 -0.71875 -1.546875 -0.71875q-0.90625 0 -1.53125 0.703125q-0.609375 0.703125 -0.609375 1.90625zm10.168884 -3.609375q1.25 0 1.8125 0.640625q0.5625 0.640625 0.5625 1.8125l0 4.59375l-1.140625 0l0 -4.703125q0 -0.59375 -0.375 -0.96875q-0.375 -0.375 -1.03125 -0.375q-0.953125 0 -1.5 0.59375q-0.53125 0.578125 -0.53125 1.515625l0 3.9375l-1.125 0l0 -6.890625l1.0625 0l0 1.09375l0.03125 0q0.375 -0.640625 0.921875 -0.9375q0.546875 -0.3125 1.3125 -0.3125zm11.677948 -2.40625l0 9.453125l-1.140625 0l0 -6.765625l-2.453125 0l0 -0.90625l0.046875 0q1.1875 0 1.84375 -0.421875q0.65625 -0.4375 0.828125 -1.359375l0.875 0z" fill-rule="nonzero"/><path fill="#c9daf8" d="m157.02493 138.70872l0 0c0 -1.890274 1.5323639 -3.422638 3.422638 -3.422638l122.1626 0c0.90774536 0 1.7782898 0.3605957 2.420166 1.0024719c0.6418762 0.64186096 1.0024719 1.5124359 1.0024719 2.420166l0 13.690155c0 1.890274 -1.5323792 3.422638 -3.422638 3.422638l-122.1626 0c-1.890274 0 -3.422638 -1.5323639 -3.422638 -3.422638z" fill-rule="evenodd"/><path stroke="#595959" stroke-width="1.0" stroke-linejoin="round" stroke-linecap="butt" d="m157.02493 138.70872l0 0c0 -1.890274 1.5323639 -3.422638 3.422638 -3.422638l122.1626 0c0.90774536 0 1.7782898 0.3605957 2.420166 1.0024719c0.6418762 0.64186096 1.0024719 1.5124359 1.0024719 2.420166l0 13.690155c0 1.890274 -1.5323792 3.422638 -3.422638 3.422638l-122.1626 0c-1.890274 0 -3.422638 -1.5323639 -3.422638 -3.422638z" fill-rule="evenodd"/><path fill="#000000" d="m174.80077 140.83818q2.171875 0 3.328125 1.15625q1.171875 1.140625 1.171875 3.375q0 2.515625 -1.15625 3.75q-1.15625 1.234375 -3.34375 1.234375l-3.328125 0l0 -9.515625l3.328125 0zm0.078125 8.453125q1.4375 0 2.296875 -0.921875q0.859375 -0.9375 0.859375 -2.828125q0 -1.890625 -0.78125 -2.765625q-0.78125 -0.875 -2.328125 -0.875l-2.203125 0l0 7.390625l2.15625 0zm8.603104 -5.984375q1.40625 0 1.984375 0.5q0.59375 0.5 0.59375 1.34375q0 3.578125 0 3.96875q0 0.390625 0.359375 0.390625q0.078125 0 0.171875 -0.015625q0.09375 -0.015625 0.171875 -0.046875l0 0.875q-0.15625 0.09375 -0.359375 0.140625q-0.203125 0.046875 -0.4375 0.046875q-0.46875 0 -0.71875 -0.25q-0.25 -0.265625 -0.25 -0.8125q-0.453125 0.53125 -1.0625 0.796875q-0.609375 0.265625 -1.359375 0.265625q-1.078125 0 -1.6875 -0.5q-0.59375 -0.5 -0.59375 -1.421875q0 -0.9375 0.59375 -1.46875q0.59375 -0.546875 2.78125 -0.828125q0.734375 -0.09375 1.0 -0.28125q0.265625 -0.1875 0.265625 -0.5625q0 -0.578125 -0.375 -0.859375q-0.359375 -0.28125 -1.15625 -0.28125q-0.84375 0 -1.265625 0.3125q-0.421875 0.3125 -0.453125 0.984375l-1.125 0q0.046875 -1.140625 0.796875 -1.71875q0.765625 -0.578125 2.125 -0.578125zm-2.0 5.1875q0 0.484375 0.34375 0.75q0.359375 0.265625 1.0 0.265625q0.953125 0 1.515625 -0.46875q0.578125 -0.484375 0.578125 -1.0625l0 -1.1875q-0.28125 0.203125 -0.734375 0.28125q-0.453125 0.0625 -1.21875 0.171875q-0.75 0.109375 -1.125 0.40625q-0.359375 0.296875 -0.359375 0.84375zm7.908661 -7.09375l0 2.0625l1.375 0l0 1.0l-1.375 0l0 4.3125q0 0.515625 0.34375 0.546875q0.34375 0.03125 0.71875 0.03125l0.3125 0l0 1.0l-0.9375 0q-0.921875 0 -1.25 -0.328125q-0.3125 -0.328125 -0.3125 -1.109375l0 -4.453125l-1.1875 0l0 -1.0l1.1875 0l0 -2.0625l1.125 0zm5.447586 1.90625q1.40625 0 1.984375 0.5q0.59375 0.5 0.59375 1.34375q0 3.578125 0 3.96875q0 0.390625 0.359375 0.390625q0.078125 0 0.171875 -0.015625q0.09375 -0.015625 0.171875 -0.046875l0 0.875q-0.15625 0.09375 -0.359375 0.140625q-0.203125 0.046875 -0.4375 0.046875q-0.46875 0 -0.71875 -0.25q-0.25 -0.265625 -0.25 -0.8125q-0.453125 0.53125 -1.0625 0.796875q-0.609375 0.265625 -1.359375 0.265625q-1.078125 0 -1.6875 -0.5q-0.59375 -0.5 -0.59375 -1.421875q0 -0.9375 0.59375 -1.46875q0.59375 -0.546875 2.78125 -0.828125q0.734375 -0.09375 1.0 -0.28125q0.265625 -0.1875 0.265625 -0.5625q0 -0.578125 -0.375 -0.859375q-0.359375 -0.28125 -1.15625 -0.28125q-0.84375 0 -1.265625 0.3125q-0.421875 0.3125 -0.453125 0.984375l-1.125 0q0.046875 -1.140625 0.796875 -1.71875q0.765625 -0.578125 2.125 -0.578125zm-2.0 5.1875q0 0.484375 0.34375 0.75q0.359375 0.265625 1.0 0.265625q0.953125 0 1.515625 -0.46875q0.578125 -0.484375 0.578125 -1.0625l0 -1.1875q-0.28125 0.203125 -0.734375 0.28125q-0.453125 0.0625 -1.21875 0.171875q-0.75 0.109375 -1.125 0.40625q-0.359375 0.296875 -0.359375 0.84375zm12.924149 -5.1875q1.25 0 2.03125 0.609375q0.796875 0.59375 0.9375 1.765625l-1.171875 0q-0.140625 -0.671875 -0.59375 -1.015625q-0.4375 -0.359375 -1.109375 -0.359375q-1.0625 0 -1.609375 0.703125q-0.546875 0.703125 -0.546875 1.984375q0 1.140625 0.546875 1.828125q0.546875 0.6875 1.46875 0.6875q0.828125 0 1.296875 -0.4375q0.484375 -0.453125 0.59375 -1.234375l1.15625 0q-0.1875 1.28125 -0.96875 1.984375q-0.78125 0.6875 -2.0625 0.6875q-1.5 0 -2.359375 -0.9375q-0.859375 -0.953125 -0.859375 -2.578125q0 -1.6875 0.859375 -2.6875q0.875 -1.0 2.390625 -1.0zm7.252411 0q1.5625 0 2.453125 1.015625q0.890625 1.0 0.890625 2.59375q0 1.609375 -0.921875 2.609375q-0.90625 0.984375 -2.421875 0.984375q-1.5 0 -2.421875 -0.96875q-0.921875 -0.984375 -0.921875 -2.625q0 -1.640625 0.90625 -2.625q0.90625 -0.984375 2.4375 -0.984375zm-2.15625 3.609375q0 1.1875 0.609375 1.890625q0.609375 0.703125 1.546875 0.703125q0.921875 0 1.53125 -0.703125q0.609375 -0.71875 0.609375 -1.890625q0 -1.171875 -0.609375 -1.890625q-0.59375 -0.71875 -1.546875 -0.71875q-0.90625 0 -1.53125 0.703125q-0.609375 0.703125 -0.609375 1.90625zm8.028259 -6.078125l0 9.515625l-1.125 0l0 -9.515625l1.125 0zm2.96109 0l0 9.515625l-1.125 0l0 -9.515625l1.125 0zm4.632965 2.46875q1.484375 0 2.296875 1.078125q0.828125 1.0625 0.828125 2.734375l0 0.125l-5.171875 0l0 0.09375q0 0.984375 0.578125 1.578125q0.578125 0.59375 1.578125 0.59375q0.75 0 1.1875 -0.34375q0.453125 -0.359375 0.59375 -1.0l1.125 0q-0.234375 1.140625 -1.015625 1.75q-0.765625 0.59375 -1.9375 0.59375q-1.078125 0 -1.828125 -0.484375q-0.75 -0.484375 -1.109375 -1.359375q-0.359375 -0.890625 -0.359375 -1.796875q0 -1.53125 0.90625 -2.546875q0.921875 -1.015625 2.328125 -1.015625zm-2.046875 2.9375l3.96875 0q-0.0625 -0.84375 -0.625 -1.390625q-0.546875 -0.546875 -1.375 -0.546875q-0.78125 0 -1.34375 0.53125q-0.546875 0.515625 -0.625 1.40625zm9.221161 -2.9375q1.25 0 2.03125 0.609375q0.796875 0.59375 0.9375 1.765625l-1.171875 0q-0.140625 -0.671875 -0.59375 -1.015625q-0.4375 -0.359375 -1.109375 -0.359375q-1.0625 0 -1.609375 0.703125q-0.546875 0.703125 -0.546875 1.984375q0 1.140625 0.546875 1.828125q0.546875 0.6875 1.46875 0.6875q0.828125 0 1.296875 -0.4375q0.484375 -0.453125 0.59375 -1.234375l1.15625 0q-0.1875 1.28125 -0.96875 1.984375q-0.78125 0.6875 -2.0625 0.6875q-1.5 0 -2.359375 -0.9375q-0.859375 -0.953125 -0.859375 -2.578125q0 -1.6875 0.859375 -2.6875q0.875 -1.0 2.390625 -1.0zm5.846161 -1.90625l0 2.0625l1.375 0l0 1.0l-1.375 0l0 4.3125q0 0.515625 0.34375 0.546875q0.34375 0.03125 0.71875 0.03125l0.3125 0l0 1.0l-0.9375 0q-0.921875 0 -1.25 -0.328125q-0.3125 -0.328125 -0.3125 -1.109375l0 -4.453125l-1.1875 0l0 -1.0l1.1875 0l0 -2.0625l1.125 0zm3.822586 -0.5625l0 1.390625l-1.125 0l0 -1.390625l1.125 0zm0 2.625l0 6.890625l-1.125 0l0 -6.890625l1.125 0zm4.74234 -0.15625q1.5625 0 2.453125 1.015625q0.890625 1.0 0.890625 2.59375q0 1.609375 -0.921875 2.609375q-0.90625 0.984375 -2.421875 0.984375q-1.5 0 -2.421875 -0.96875q-0.921875 -0.984375 -0.921875 -2.625q0 -1.640625 0.90625 -2.625q0.90625 -0.984375 2.4375 -0.984375zm-2.15625 3.609375q0 1.1875 0.609375 1.890625q0.609375 0.703125 1.546875 0.703125q0.921875 0 1.53125 -0.703125q0.609375 -0.71875 0.609375 -1.890625q0 -1.171875 -0.609375 -1.890625q-0.59375 -0.71875 -1.546875 -0.71875q-0.90625 0 -1.53125 0.703125q-0.609375 0.703125 -0.609375 1.90625zm10.168869 -3.609375q1.25 0 1.8125 0.640625q0.5625 0.640625 0.5625 1.8125l0 4.59375l-1.140625 0l0 -4.703125q0 -0.59375 -0.375 -0.96875q-0.375 -0.375 -1.0312347 -0.375q-0.953125 0 -1.5 0.59375q-0.53125 0.578125 -0.53125 1.515625l0 3.9375l-1.125 0l0 -6.890625l1.0625 0l0 1.09375l0.03125 0q0.375 -0.640625 0.921875 -0.9375q0.546875 -0.3125 1.3124847 -0.3125zm9.3029785 -2.46875l5.015625 7.71875l0.015625 0l0 -7.71875l1.203125 0l0 9.515625l-1.390625 0l-4.96875 -7.640625l-0.03125 0l0 7.640625l-1.1875 0l0 -9.515625l1.34375 0z" fill-rule="nonzero"/><path fill="#c9daf8" d="m37.119423 344.92395l0 0c0 -1.8902588 1.5323677 -3.422638 3.4226418 -3.422638l73.06023 0c0.90773773 0 1.778305 0.3605957 2.4201736 1.0024719c0.6418686 0.6418762 1.0024643 1.5124207 1.0024643 2.420166l0 13.690155c0 1.8902588 -1.5323639 3.422638 -3.422638 3.422638l-73.06023 0c-1.890274 0 -3.4226418 -1.5323792 -3.4226418 -3.422638z" fill-rule="evenodd"/><path stroke="#595959" stroke-width="1.0" stroke-linejoin="round" stroke-linecap="butt" d="m37.119423 344.92395l0 0c0 -1.8902588 1.5323677 -3.422638 3.4226418 -3.422638l73.06023 0c0.90773773 0 1.778305 0.3605957 2.4201736 1.0024719c0.6418686 0.6418762 1.0024643 1.5124207 1.0024643 2.420166l0 13.690155c0 1.8902588 -1.5323639 3.422638 -3.422638 3.422638l-73.06023 0c-1.890274 0 -3.4226418 -1.5323792 -3.4226418 -3.422638z" fill-rule="evenodd"/><path fill="#000000" d="m52.05039 346.81903q1.59375 0 2.515625 0.78125q0.9375 0.765625 1.0 2.234375l-1.203125 0q-0.109375 -0.96875 -0.703125 -1.453125q-0.59375 -0.484375 -1.65625 -0.484375q-1.015625 0 -1.578125 0.421875q-0.5625 0.421875 -0.5625 1.203125q0 0.546875 0.46875 0.90625q0.484375 0.359375 2.59375 0.78125q1.515625 0.3125 2.265625 0.96875q0.765625 0.640625 0.765625 1.78125q0 1.328125 -1.09375 2.09375q-1.078125 0.75 -2.625 0.75q-1.734375 0 -2.828125 -0.859375q-1.09375 -0.875 -1.09375 -2.5l1.1875 0q0.015625 1.078125 0.78125 1.6875q0.765625 0.59375 2.0 0.59375q1.140625 0 1.765625 -0.4375q0.640625 -0.453125 0.640625 -1.296875q0 -0.671875 -0.578125 -1.078125q-0.578125 -0.40625 -2.09375 -0.703125q-2.03125 -0.390625 -2.734375 -1.0q-0.6875 -0.609375 -0.6875 -1.59375q0 -1.28125 0.96875 -2.03125q0.984375 -0.765625 2.484375 -0.765625zm8.073456 2.703125q1.40625 0 1.984375 0.5q0.59375 0.5 0.59375 1.34375q0 3.578125 0 3.96875q0 0.390625 0.359375 0.390625q0.078125 0 0.171875 -0.015625q0.09375 -0.015625 0.171875 -0.046875l0 0.875q-0.15625 0.09375 -0.359375 0.140625q-0.203125 0.046875 -0.4375 0.046875q-0.46875 0 -0.71875 -0.25q-0.25 -0.265625 -0.25 -0.8125q-0.453125 0.53125 -1.0625 0.796875q-0.609375 0.265625 -1.359375 0.265625q-1.078125 0 -1.6875 -0.5q-0.59375 -0.5 -0.59375 -1.421875q0 -0.9375 0.59375 -1.46875q0.59375 -0.546875 2.78125 -0.828125q0.734375 -0.09375 1.0 -0.28125q0.265625 -0.1875 0.265625 -0.5625q0 -0.578125 -0.375 -0.859375q-0.359375 -0.28125 -1.15625 -0.28125q-0.84375 0 -1.265625 0.3125q-0.421875 0.3125 -0.453125 0.984375l-1.125 0q0.046875 -1.140625 0.796875 -1.71875q0.765625 -0.578125 2.125 -0.578125zm-2.0 5.1875q0 0.484375 0.34375 0.75q0.359375 0.265625 1.0 0.265625q0.953125 0 1.515625 -0.46875q0.578125 -0.484375 0.578125 -1.0625l0 -1.1875q-0.28125 0.203125 -0.734375 0.28125q-0.453125 0.0625 -1.21875 0.171875q-0.75 0.109375 -1.125 0.40625q-0.359375 0.296875 -0.359375 0.84375zm9.658665 -5.1875q0.75 0 1.234375 0.3125q0.484375 0.296875 0.65625 0.859375q0.359375 -0.5625 0.921875 -0.859375q0.5625 -0.3125 1.25 -0.3125q1.15625 0 1.71875 0.53125q0.5625 0.515625 0.5625 1.421875l0 5.09375l-1.125 0l0 -4.5625q0 -0.75 -0.328125 -1.109375q-0.3125 -0.375 -1.015625 -0.375q-0.84375 0 -1.328125 0.5q-0.46875 0.484375 -0.46875 1.21875l0 4.328125l-1.140625 0l0 -4.5625q0 -0.75 -0.3125 -1.109375q-0.3125 -0.375 -0.96875 -0.375q-0.546875 0 -0.96875 0.265625q-0.40625 0.25 -0.640625 0.703125q-0.234375 0.453125 -0.234375 0.765625l0 4.3125l-1.125 0l0 -6.890625l1.0625 0l0 1.015625l0.03125 0q0.390625 -0.59375 0.9375 -0.875q0.546875 -0.296875 1.28125 -0.296875zm11.447388 0q1.484375 0 2.328125 1.015625q0.84375 1.015625 0.84375 2.609375q0 1.59375 -0.84375 2.59375q-0.84375 0.984375 -2.296875 0.984375q-0.640625 0 -1.265625 -0.265625q-0.609375 -0.265625 -0.96875 -0.8125l-0.015625 0l0 3.5625l-1.140625 0l0 -9.53125l1.140625 0l0 0.9375l0.015625 0q0.265625 -0.53125 0.84375 -0.8125q0.578125 -0.28125 1.359375 -0.28125zm-2.265625 3.59375q0 1.203125 0.578125 1.90625q0.578125 0.703125 1.59375 0.703125q0.984375 0 1.515625 -0.703125q0.546875 -0.703125 0.546875 -1.953125q0 -1.109375 -0.578125 -1.828125q-0.5625 -0.71875 -1.5625 -0.71875q-1.0 0 -1.546875 0.734375q-0.546875 0.71875 -0.546875 1.859375zm7.9630585 -6.0625l0 9.515625l-1.125 0l0 -9.515625l1.125 0zm4.632965 2.46875q1.484375 0 2.296875 1.078125q0.828125 1.0625 0.828125 2.734375l0 0.125l-5.171875 0l0 0.09375q0 0.984375 0.578125 1.578125q0.578125 0.59375 1.578125 0.59375q0.75 0 1.1875 -0.34375q0.453125 -0.359375 0.59375 -1.0l1.125 0q-0.234375 1.140625 -1.015625 1.75q-0.765625 0.59375 -1.9375 0.59375q-1.078125 0 -1.828125 -0.484375q-0.75 -0.484375 -1.109375 -1.359375q-0.359375 -0.890625 -0.359375 -1.796875q0 -1.53125 0.90625 -2.546875q0.921875 -1.015625 2.328125 -1.015625zm-2.046875 2.9375l3.96875 0q-0.0625 -0.84375 -0.625 -1.390625q-0.546875 -0.546875 -1.375 -0.546875q-0.78125 0 -1.34375 0.53125q-0.546875 0.515625 -0.625 1.40625zm11.564774 -5.40625l5.015625 7.71875l0.015625 0l0 -7.71875l1.203125 0l0 9.515625l-1.390625 0l-4.96875 -7.640625l-0.03125 0l0 7.640625l-1.1875 0l0 -9.515625l1.34375 0z" fill-rule="nonzero"/><path fill="#c9daf8" d="m96.502625 183.31372l0 0c0 -1.890274 1.5323715 -3.422638 3.422638 -3.422638l73.06023 0c0.90774536 0 1.778305 0.3605957 2.4201813 1.0024567c0.64186096 0.6418762 1.0024719 1.5124359 1.0024719 2.4201813l0 13.690155c0 1.8902588 -1.5323792 3.422638 -3.4226532 3.422638l-73.06023 0c-1.8902664 0 -3.422638 -1.5323792 -3.422638 -3.422638z" fill-rule="evenodd"/><path stroke="#595959" stroke-width="1.0" stroke-linejoin="round" stroke-linecap="butt" d="m96.502625 183.31372l0 0c0 -1.890274 1.5323715 -3.422638 3.422638 -3.422638l73.06023 0c0.90774536 0 1.778305 0.3605957 2.4201813 1.0024567c0.64186096 0.6418762 1.0024719 1.5124359 1.0024719 2.4201813l0 13.690155c0 1.8902588 -1.5323792 3.422638 -3.4226532 3.422638l-73.06023 0c-1.8902664 0 -3.422638 -1.5323792 -3.422638 -3.422638z" fill-rule="evenodd"/><path fill="#000000" d="m117.36852 185.20879q1.6875 0 2.765625 0.8125q1.078125 0.8125 1.328125 2.34375l-1.265625 0q-0.1875 -1.0 -0.9375 -1.53125q-0.734375 -0.546875 -1.890625 -0.546875q-1.53125 0 -2.40625 1.125q-0.859375 1.125 -0.859375 2.90625q0 1.640625 0.890625 2.71875q0.90625 1.078125 2.375 1.078125q1.359375 0 2.203125 -0.8125q0.84375 -0.828125 0.84375 -2.140625l0 -0.140625l-3.046875 0l0 -1.078125l4.171875 0l0 5.015625l-0.78125 0l-0.34375 -1.1875q-0.515625 0.6875 -1.328125 1.0625q-0.796875 0.359375 -1.71875 0.359375q-1.953125 0 -3.25 -1.390625q-1.28125 -1.40625 -1.28125 -3.421875q0 -2.25 1.21875 -3.703125q1.21875 -1.46875 3.3125 -1.46875zm9.28511 2.703125q0.046875 0 0.078125 0q0.03125 0 0.078125 0l0 1.203125q-1.28125 0 -1.890625 0.671875q-0.59375 0.671875 -0.59375 2.09375l0 3.078125l-1.140625 0l0 -6.890625l1.0625 0l0 1.453125l0.03125 0q0.390625 -0.828125 0.96875 -1.21875q0.59375 -0.390625 1.40625 -0.390625zm3.7443466 0q1.5625 0 2.453125 1.015625q0.890625 1.0 0.890625 2.59375q0 1.609375 -0.921875 2.609375q-0.90625 0.984375 -2.421875 0.984375q-1.5 0 -2.4218674 -0.96875q-0.921875 -0.984375 -0.921875 -2.625q0 -1.640625 0.90625 -2.625q0.9062424 -0.984375 2.4374924 -0.984375zm-2.15625 3.609375q0 1.1875 0.609375 1.890625q0.609375 0.703125 1.546875 0.703125q0.921875 0 1.53125 -0.703125q0.609375 -0.71875 0.609375 -1.890625q0 -1.171875 -0.609375 -1.890625q-0.59375 -0.71875 -1.546875 -0.71875q-0.90625 0 -1.53125 0.703125q-0.609375 0.703125 -0.609375 1.90625zm7.9657593 -3.453125l0 4.703125q0 0.578125 0.375 0.96875q0.375 0.375 1.03125 0.375q0.96875 0 1.5 -0.59375q0.53125 -0.59375 0.53125 -1.515625l0 -3.9375l1.140625 0l0 6.890625l-1.0625 0l0 -1.09375l-0.03125 0q-0.375 0.65625 -0.953125 0.953125q-0.5625 0.296875 -1.296875 0.296875q-1.203125 0 -1.78125 -0.609375q-0.578125 -0.625 -0.578125 -1.84375l0 -4.59375l1.125 0zm9.678101 -0.15625q1.484375 0 2.328125 1.015625q0.84375 1.015625 0.84375 2.609375q0 1.59375 -0.84375 2.59375q-0.84375 0.984375 -2.296875 0.984375q-0.640625 0 -1.265625 -0.265625q-0.609375 -0.265625 -0.96875 -0.8125l-0.015625 0l0 3.5625l-1.140625 0l0 -9.53125l1.140625 0l0 0.9375l0.015625 0q0.265625 -0.53125 0.84375 -0.8125q0.578125 -0.28125 1.359375 -0.28125zm-2.265625 3.59375q0 1.203125 0.578125 1.90625q0.578125 0.703125 1.59375 0.703125q0.984375 0 1.515625 -0.703125q0.546875 -0.703125 0.546875 -1.953125q0 -1.109375 -0.578125 -1.828125q-0.5625 -0.71875 -1.5625 -0.71875q-1.0 0 -1.546875 0.734375q-0.546875 0.71875 -0.546875 1.859375zm13.244171 -6.0q1.3125 0 2.140625 0.75q0.828125 0.734375 0.828125 1.96875q0 0.984375 -0.546875 1.78125q-0.546875 0.78125 -2.328125 1.796875q-1.078125 0.625 -1.53125 1.125q-0.453125 0.484375 -0.546875 1.03125l4.84375 0l0 1.0l-6.171875 0q0.109375 -1.171875 0.609375 -2.0625q0.515625 -0.890625 1.921875 -1.71875q1.640625 -1.015625 2.078125 -1.578125q0.453125 -0.578125 0.453125 -1.375q0 -0.75 -0.515625 -1.234375q-0.515625 -0.484375 -1.296875 -0.484375q-0.859375 0 -1.359375 0.640625q-0.484375 0.640625 -0.484375 1.609375l0 0.09375l-1.140625 0l0 -0.234375q0 -1.40625 0.828125 -2.25q0.84375 -0.859375 2.21875 -0.859375z" fill-rule="nonzero"/><path fill="#000000" fill-opacity="0.0" d="m36.250656 20.535433l0 8.573441l40.8189 0l0 8.560419" fill-rule="evenodd"/><path stroke="#595959" stroke-width="1.0" stroke-linejoin="round" stroke-linecap="butt" d="m36.250656 20.535433l0 8.573441l40.8189 0l0 8.560419" fill-rule="evenodd"/><path fill="#000000" fill-opacity="0.0" d="m136.45538 91.9042l0 23.433075l20.566925 0" fill-rule="evenodd"/><path stroke="#595959" stroke-width="1.0" stroke-linejoin="round" stroke-linecap="butt" d="m136.45538 91.9042l0 23.433075l20.566925 0" fill-rule="evenodd"/><path fill="#000000" fill-opacity="0.0" d="m77.07218 58.217846l0 23.433071l19.433067 0" fill-rule="evenodd"/><path stroke="#595959" stroke-width="1.0" stroke-linejoin="round" stroke-linecap="butt" d="m77.07218 58.217846l0 23.433071l19.433067 0" fill-rule="evenodd"/><path fill="#000000" fill-opacity="0.0" d="m77.07218 58.217846l0 131.93701l19.433067 0" fill-rule="evenodd"/><path stroke="#595959" stroke-width="1.0" stroke-linejoin="round" stroke-linecap="butt" d="m77.07218 58.217846l0 131.93701l19.433067 0" fill-rule="evenodd"/><path fill="#000000" fill-opacity="0.0" d="m136.45538 91.9042l0 53.637794l20.566925 0" fill-rule="evenodd"/><path stroke="#595959" stroke-width="1.0" stroke-linejoin="round" stroke-linecap="butt" d="m136.45538 91.9042l0 53.637794l20.566925 0" fill-rule="evenodd"/><path fill="#c9daf8" d="m157.02493 218.09718l0 0c0 -1.890274 1.5323639 -3.422638 3.422638 -3.422638l122.1626 0c0.90774536 0 1.7782898 0.3605957 2.420166 1.0024567c0.6418762 0.6418762 1.0024719 1.5124359 1.0024719 2.4201813l0 13.690155c0 1.890274 -1.5323792 3.422638 -3.422638 3.422638l-122.1626 0c-1.890274 0 -3.422638 -1.5323639 -3.422638 -3.422638z" fill-rule="evenodd"/><path stroke="#595959" stroke-width="1.0" stroke-linejoin="round" stroke-linecap="butt" d="m157.02493 218.09718l0 0c0 -1.890274 1.5323639 -3.422638 3.422638 -3.422638l122.1626 0c0.90774536 0 1.7782898 0.3605957 2.420166 1.0024567c0.6418762 0.6418762 1.0024719 1.5124359 1.0024719 2.4201813l0 13.690155c0 1.890274 -1.5323792 3.422638 -3.422638 3.422638l-122.1626 0c-1.890274 0 -3.422638 -1.5323639 -3.422638 -3.422638z" fill-rule="evenodd"/><path fill="#000000" d="m175.9071 220.22662q2.171875 0 3.328125 1.15625q1.171875 1.140625 1.171875 3.375q0 2.515625 -1.15625 3.75q-1.15625 1.234375 -3.34375 1.234375l-3.328125 0l0 -9.515625l3.328125 0zm0.078125 8.453125q1.4375 0 2.296875 -0.921875q0.859375 -0.9375 0.859375 -2.828125q0 -1.890625 -0.78125 -2.765625q-0.78125 -0.875 -2.328125 -0.875l-2.203125 0l0 7.390625l2.15625 0zm8.603104 -5.984375q1.40625 0 1.984375 0.5q0.59375 0.5 0.59375 1.34375q0 3.578125 0 3.96875q0 0.390625 0.359375 0.390625q0.078125 0 0.171875 -0.015625q0.09375 -0.015625 0.171875 -0.046875l0 0.875q-0.15625 0.09375 -0.359375 0.140625q-0.203125 0.046875 -0.4375 0.046875q-0.46875 0 -0.71875 -0.25q-0.25 -0.265625 -0.25 -0.8125q-0.453125 0.53125 -1.0625 0.796875q-0.609375 0.265625 -1.359375 0.265625q-1.078125 0 -1.6875 -0.5q-0.59375 -0.5 -0.59375 -1.421875q0 -0.9375 0.59375 -1.46875q0.59375 -0.546875 2.78125 -0.828125q0.734375 -0.09375 1.0 -0.28125q0.265625 -0.1875 0.265625 -0.5625q0 -0.578125 -0.375 -0.859375q-0.359375 -0.28125 -1.15625 -0.28125q-0.84375 0 -1.265625 0.3125q-0.421875 0.3125 -0.453125 0.984375l-1.125 0q0.046875 -1.140625 0.796875 -1.71875q0.765625 -0.578125 2.125 -0.578125zm-2.0 5.1875q0 0.484375 0.34375 0.75q0.359375 0.265625 1.0 0.265625q0.953125 0 1.515625 -0.46875q0.578125 -0.484375 0.578125 -1.0625l0 -1.1875q-0.28125 0.203125 -0.734375 0.28125q-0.453125 0.0625 -1.21875 0.171875q-0.75 0.109375 -1.125 0.40625q-0.359375 0.296875 -0.359375 0.84375zm7.908661 -7.09375l0 2.0625l1.375 0l0 1.0l-1.375 0l0 4.3125q0 0.515625 0.34375 0.546875q0.34375 0.03125 0.71875 0.03125l0.3125 0l0 1.0l-0.9375 0q-0.921875 0 -1.25 -0.328125q-0.3125 -0.328125 -0.3125 -1.109375l0 -4.453125l-1.1875 0l0 -1.0l1.1875 0l0 -2.0625l1.125 0zm5.447586 1.90625q1.40625 0 1.984375 0.5q0.59375 0.5 0.59375 1.34375q0 3.578125 0 3.96875q0 0.390625 0.359375 0.390625q0.078125 0 0.171875 -0.015625q0.09375 -0.015625 0.171875 -0.046875l0 0.875q-0.15625 0.09375 -0.359375 0.140625q-0.203125 0.046875 -0.4375 0.046875q-0.46875 0 -0.71875 -0.25q-0.25 -0.265625 -0.25 -0.8125q-0.453125 0.53125 -1.0625 0.796875q-0.609375 0.265625 -1.359375 0.265625q-1.078125 0 -1.6875 -0.5q-0.59375 -0.5 -0.59375 -1.421875q0 -0.9375 0.59375 -1.46875q0.59375 -0.546875 2.78125 -0.828125q0.734375 -0.09375 1.0 -0.28125q0.265625 -0.1875 0.265625 -0.5625q0 -0.578125 -0.375 -0.859375q-0.359375 -0.28125 -1.15625 -0.28125q-0.84375 0 -1.265625 0.3125q-0.421875 0.3125 -0.453125 0.984375l-1.125 0q0.046875 -1.140625 0.796875 -1.71875q0.765625 -0.578125 2.125 -0.578125zm-2.0 5.1875q0 0.484375 0.34375 0.75q0.359375 0.265625 1.0 0.265625q0.953125 0 1.515625 -0.46875q0.578125 -0.484375 0.578125 -1.0625l0 -1.1875q-0.28125 0.203125 -0.734375 0.28125q-0.453125 0.0625 -1.21875 0.171875q-0.75 0.109375 -1.125 0.40625q-0.359375 0.296875 -0.359375 0.84375zm12.924149 -5.1875q1.25 0 2.03125 0.609375q0.796875 0.59375 0.9375 1.765625l-1.171875 0q-0.140625 -0.671875 -0.59375 -1.015625q-0.4375 -0.359375 -1.109375 -0.359375q-1.0625 0 -1.609375 0.703125q-0.546875 0.703125 -0.546875 1.984375q0 1.140625 0.546875 1.828125q0.546875 0.6875 1.46875 0.6875q0.828125 0 1.296875 -0.4375q0.484375 -0.453125 0.59375 -1.234375l1.15625 0q-0.1875 1.28125 -0.96875 1.984375q-0.78125 0.6875 -2.0625 0.6875q-1.5 0 -2.359375 -0.9375q-0.859375 -0.953125 -0.859375 -2.578125q0 -1.6875 0.859375 -2.6875q0.875 -1.0 2.390625 -1.0zm7.252411 0q1.5625 0 2.453125 1.015625q0.890625 1.0 0.890625 2.59375q0 1.609375 -0.921875 2.609375q-0.90625 0.984375 -2.421875 0.984375q-1.5 0 -2.421875 -0.96875q-0.921875 -0.984375 -0.921875 -2.625q0 -1.640625 0.90625 -2.625q0.90625 -0.984375 2.4375 -0.984375zm-2.15625 3.609375q0 1.1875 0.609375 1.890625q0.609375 0.703125 1.546875 0.703125q0.921875 0 1.53125 -0.703125q0.609375 -0.71875 0.609375 -1.890625q0 -1.171875 -0.609375 -1.890625q-0.59375 -0.71875 -1.546875 -0.71875q-0.90625 0 -1.53125 0.703125q-0.609375 0.703125 -0.609375 1.90625zm8.028259 -6.078125l0 9.515625l-1.125 0l0 -9.515625l1.125 0zm2.96109 0l0 9.515625l-1.125 0l0 -9.515625l1.125 0zm4.632965 2.46875q1.484375 0 2.296875 1.078125q0.828125 1.0625 0.828125 2.734375l0 0.125l-5.171875 0l0 0.09375q0 0.984375 0.578125 1.578125q0.578125 0.59375 1.578125 0.59375q0.75 0 1.1875 -0.34375q0.453125 -0.359375 0.59375 -1.0l1.125 0q-0.234375 1.140625 -1.015625 1.75q-0.765625 0.59375 -1.9375 0.59375q-1.078125 0 -1.828125 -0.484375q-0.75 -0.484375 -1.109375 -1.359375q-0.359375 -0.890625 -0.359375 -1.796875q0 -1.53125 0.90625 -2.546875q0.921875 -1.015625 2.328125 -1.015625zm-2.046875 2.9375l3.96875 0q-0.0625 -0.84375 -0.625 -1.390625q-0.546875 -0.546875 -1.375 -0.546875q-0.78125 0 -1.34375 0.53125q-0.546875 0.515625 -0.625 1.40625zm9.221161 -2.9375q1.25 0 2.03125 0.609375q0.796875 0.59375 0.9375 1.765625l-1.171875 0q-0.140625 -0.671875 -0.59375 -1.015625q-0.4375 -0.359375 -1.109375 -0.359375q-1.0625 0 -1.609375 0.703125q-0.546875 0.703125 -0.546875 1.984375q0 1.140625 0.546875 1.828125q0.546875 0.6875 1.46875 0.6875q0.828125 0 1.296875 -0.4375q0.484375 -0.453125 0.59375 -1.234375l1.15625 0q-0.1875 1.28125 -0.96875 1.984375q-0.78125 0.6875 -2.0625 0.6875q-1.5 0 -2.359375 -0.9375q-0.859375 -0.953125 -0.859375 -2.578125q0 -1.6875 0.859375 -2.6875q0.875 -1.0 2.390625 -1.0zm5.846161 -1.90625l0 2.0625l1.375 0l0 1.0l-1.375 0l0 4.3125q0 0.515625 0.34375 0.546875q0.34375 0.03125 0.71875 0.03125l0.3125 0l0 1.0l-0.9375 0q-0.921875 0 -1.25 -0.328125q-0.3125 -0.328125 -0.3125 -1.109375l0 -4.453125l-1.1875 0l0 -1.0l1.1875 0l0 -2.0625l1.125 0zm3.822586 -0.5625l0 1.390625l-1.125 0l0 -1.390625l1.125 0zm0 2.625l0 6.890625l-1.125 0l0 -6.890625l1.125 0zm4.74234 -0.15625q1.5625 0 2.453125 1.015625q0.890625 1.0 0.890625 2.59375q0 1.609375 -0.921875 2.609375q-0.90625 0.984375 -2.421875 0.984375q-1.5 0 -2.421875 -0.96875q-0.921875 -0.984375 -0.921875 -2.625q0 -1.640625 0.90625 -2.625q0.90625 -0.984375 2.4375 -0.984375zm-2.15625 3.609375q0 1.1875 0.609375 1.890625q0.609375 0.703125 1.546875 0.703125q0.921875 0 1.53125 -0.703125q0.609375 -0.71875 0.609375 -1.890625q0 -1.171875 -0.609375 -1.890625q-0.59375 -0.71875 -1.546875 -0.71875q-0.90625 0 -1.53125 0.703125q-0.609375 0.703125 -0.609375 1.90625zm10.168884 -3.609375q1.25 0 1.8125 0.640625q0.5625 0.640625 0.5625 1.8125l0 4.59375l-1.140625 0l0 -4.703125q0 -0.59375 -0.375 -0.96875q-0.375 -0.375 -1.03125 -0.375q-0.953125 0 -1.5 0.59375q-0.53125 0.578125 -0.53125 1.515625l0 3.9375l-1.125 0l0 -6.890625l1.0625 0l0 1.09375l0.03125 0q0.375 -0.640625 0.921875 -0.9375q0.546875 -0.3125 1.3125 -0.3125zm11.677948 -2.40625l0 9.453125l-1.140625 0l0 -6.765625l-2.453125 0l0 -0.90625l0.046875 0q1.1875 0 1.84375 -0.421875q0.65625 -0.4375 0.828125 -1.359375l0.875 0z" fill-rule="nonzero"/><path fill="#c9daf8" d="m157.02493 248.32553l0 0c0 -1.890274 1.5323639 -3.422638 3.422638 -3.422638l122.1626 0c0.90774536 0 1.7782898 0.3605957 2.420166 1.0024567c0.6418762 0.6418762 1.0024719 1.5124359 1.0024719 2.4201813l0 13.690155c0 1.8902588 -1.5323792 3.422638 -3.422638 3.422638l-122.1626 0c-1.890274 0 -3.422638 -1.5323792 -3.422638 -3.422638z" fill-rule="evenodd"/><path stroke="#595959" stroke-width="1.0" stroke-linejoin="round" stroke-linecap="butt" d="m157.02493 248.32553l0 0c0 -1.890274 1.5323639 -3.422638 3.422638 -3.422638l122.1626 0c0.90774536 0 1.7782898 0.3605957 2.420166 1.0024567c0.6418762 0.6418762 1.0024719 1.5124359 1.0024719 2.4201813l0 13.690155c0 1.8902588 -1.5323792 3.422638 -3.422638 3.422638l-122.1626 0c-1.890274 0 -3.422638 -1.5323792 -3.422638 -3.422638z" fill-rule="evenodd"/><path fill="#000000" d="m174.80077 250.45497q2.171875 0 3.328125 1.15625q1.171875 1.140625 1.171875 3.375q0 2.5156403 -1.15625 3.7500153q-1.15625 1.234375 -3.34375 1.234375l-3.328125 0l0 -9.51564l3.328125 0zm0.078125 8.45314q1.4375 0 2.296875 -0.921875q0.859375 -0.9375 0.859375 -2.8281403q0 -1.890625 -0.78125 -2.765625q-0.78125 -0.875 -2.328125 -0.875l-2.203125 0l0 7.3906403l2.15625 0zm8.603104 -5.9843903q1.40625 0 1.984375 0.5q0.59375 0.5 0.59375 1.34375q0 3.5781403 0 3.9687653q0 0.390625 0.359375 0.390625q0.078125 0 0.171875 -0.015625q0.09375 -0.015625 0.171875 -0.046875l0 0.875q-0.15625 0.09375 -0.359375 0.140625q-0.203125 0.046875 -0.4375 0.046875q-0.46875 0 -0.71875 -0.25q-0.25 -0.265625 -0.25 -0.8125q-0.453125 0.53125 -1.0625 0.796875q-0.609375 0.265625 -1.359375 0.265625q-1.078125 0 -1.6875 -0.5q-0.59375 -0.5 -0.59375 -1.421875q0 -0.9375 0.59375 -1.46875q0.59375 -0.546875 2.78125 -0.82814026q0.734375 -0.09375 1.0 -0.28125q0.265625 -0.1875 0.265625 -0.5625q0 -0.578125 -0.375 -0.859375q-0.359375 -0.28125 -1.15625 -0.28125q-0.84375 0 -1.265625 0.3125q-0.421875 0.3125 -0.453125 0.984375l-1.125 0q0.046875 -1.140625 0.796875 -1.71875q0.765625 -0.578125 2.125 -0.578125zm-2.0 5.1875153q0 0.484375 0.34375 0.75q0.359375 0.265625 1.0 0.265625q0.953125 0 1.515625 -0.46875q0.578125 -0.484375 0.578125 -1.0625l0 -1.1875q-0.28125 0.203125 -0.734375 0.28125q-0.453125 0.0625 -1.21875 0.171875q-0.75 0.109375 -1.125 0.40625q-0.359375 0.296875 -0.359375 0.84375zm7.908661 -7.0937653l0 2.0625l1.375 0l0 1.0l-1.375 0l0 4.3125153q0 0.515625 0.34375 0.546875q0.34375 0.03125 0.71875 0.03125l0.3125 0l0 1.0l-0.9375 0q-0.921875 0 -1.25 -0.328125q-0.3125 -0.328125 -0.3125 -1.109375l0 -4.4531403l-1.1875 0l0 -1.0l1.1875 0l0 -2.0625l1.125 0zm5.447586 1.90625q1.40625 0 1.984375 0.5q0.59375 0.5 0.59375 1.34375q0 3.5781403 0 3.9687653q0 0.390625 0.359375 0.390625q0.078125 0 0.171875 -0.015625q0.09375 -0.015625 0.171875 -0.046875l0 0.875q-0.15625 0.09375 -0.359375 0.140625q-0.203125 0.046875 -0.4375 0.046875q-0.46875 0 -0.71875 -0.25q-0.25 -0.265625 -0.25 -0.8125q-0.453125 0.53125 -1.0625 0.796875q-0.609375 0.265625 -1.359375 0.265625q-1.078125 0 -1.6875 -0.5q-0.59375 -0.5 -0.59375 -1.421875q0 -0.9375 0.59375 -1.46875q0.59375 -0.546875 2.78125 -0.82814026q0.734375 -0.09375 1.0 -0.28125q0.265625 -0.1875 0.265625 -0.5625q0 -0.578125 -0.375 -0.859375q-0.359375 -0.28125 -1.15625 -0.28125q-0.84375 0 -1.265625 0.3125q-0.421875 0.3125 -0.453125 0.984375l-1.125 0q0.046875 -1.140625 0.796875 -1.71875q0.765625 -0.578125 2.125 -0.578125zm-2.0 5.1875153q0 0.484375 0.34375 0.75q0.359375 0.265625 1.0 0.265625q0.953125 0 1.515625 -0.46875q0.578125 -0.484375 0.578125 -1.0625l0 -1.1875q-0.28125 0.203125 -0.734375 0.28125q-0.453125 0.0625 -1.21875 0.171875q-0.75 0.109375 -1.125 0.40625q-0.359375 0.296875 -0.359375 0.84375zm12.924149 -5.1875153q1.25 0 2.03125 0.609375q0.796875 0.59375 0.9375 1.765625l-1.171875 0q-0.140625 -0.671875 -0.59375 -1.015625q-0.4375 -0.359375 -1.109375 -0.359375q-1.0625 0 -1.609375 0.703125q-0.546875 0.703125 -0.546875 1.9843903q0 1.140625 0.546875 1.828125q0.546875 0.6875 1.46875 0.6875q0.828125 0 1.296875 -0.4375q0.484375 -0.453125 0.59375 -1.234375l1.15625 0q-0.1875 1.28125 -0.96875 1.984375q-0.78125 0.6875 -2.0625 0.6875q-1.5 0 -2.359375 -0.9375q-0.859375 -0.953125 -0.859375 -2.578125q0 -1.6875153 0.859375 -2.6875153q0.875 -1.0 2.390625 -1.0zm7.252411 0q1.5625 0 2.453125 1.015625q0.890625 1.0 0.890625 2.5937653q0 1.609375 -0.921875 2.609375q-0.90625 0.984375 -2.421875 0.984375q-1.5 0 -2.421875 -0.96875q-0.921875 -0.984375 -0.921875 -2.625q0 -1.6406403 0.90625 -2.6250153q0.90625 -0.984375 2.4375 -0.984375zm-2.15625 3.6093903q0 1.1875 0.609375 1.890625q0.609375 0.703125 1.546875 0.703125q0.921875 0 1.53125 -0.703125q0.609375 -0.71875 0.609375 -1.890625q0 -1.1718903 -0.609375 -1.8906403q-0.59375 -0.71875 -1.546875 -0.71875q-0.90625 0 -1.53125 0.703125q-0.609375 0.703125 -0.609375 1.9062653zm8.028259 -6.0781403l0 9.51564l-1.125 0l0 -9.51564l1.125 0zm2.96109 0l0 9.51564l-1.125 0l0 -9.51564l1.125 0zm4.632965 2.46875q1.484375 0 2.296875 1.078125q0.828125 1.0625 0.828125 2.7343903l0 0.125l-5.171875 0l0 0.09375q0 0.984375 0.578125 1.578125q0.578125 0.59375 1.578125 0.59375q0.75 0 1.1875 -0.34375q0.453125 -0.359375 0.59375 -1.0l1.125 0q-0.234375 1.140625 -1.015625 1.75q-0.765625 0.59375 -1.9375 0.59375q-1.078125 0 -1.828125 -0.484375q-0.75 -0.484375 -1.109375 -1.359375q-0.359375 -0.890625 -0.359375 -1.796875q0 -1.5312653 0.90625 -2.5468903q0.921875 -1.015625 2.328125 -1.015625zm-2.046875 2.9375l3.96875 0q-0.0625 -0.84375 -0.625 -1.390625q-0.546875 -0.546875 -1.375 -0.546875q-0.78125 0 -1.34375 0.53125q-0.546875 0.515625 -0.625 1.40625zm9.221161 -2.9375q1.25 0 2.03125 0.609375q0.796875 0.59375 0.9375 1.765625l-1.171875 0q-0.140625 -0.671875 -0.59375 -1.015625q-0.4375 -0.359375 -1.109375 -0.359375q-1.0625 0 -1.609375 0.703125q-0.546875 0.703125 -0.546875 1.9843903q0 1.140625 0.546875 1.828125q0.546875 0.6875 1.46875 0.6875q0.828125 0 1.296875 -0.4375q0.484375 -0.453125 0.59375 -1.234375l1.15625 0q-0.1875 1.28125 -0.96875 1.984375q-0.78125 0.6875 -2.0625 0.6875q-1.5 0 -2.359375 -0.9375q-0.859375 -0.953125 -0.859375 -2.578125q0 -1.6875153 0.859375 -2.6875153q0.875 -1.0 2.390625 -1.0zm5.846161 -1.90625l0 2.0625l1.375 0l0 1.0l-1.375 0l0 4.3125153q0 0.515625 0.34375 0.546875q0.34375 0.03125 0.71875 0.03125l0.3125 0l0 1.0l-0.9375 0q-0.921875 0 -1.25 -0.328125q-0.3125 -0.328125 -0.3125 -1.109375l0 -4.4531403l-1.1875 0l0 -1.0l1.1875 0l0 -2.0625l1.125 0zm3.822586 -0.5625l0 1.390625l-1.125 0l0 -1.390625l1.125 0zm0 2.625l0 6.8906403l-1.125 0l0 -6.8906403l1.125 0zm4.74234 -0.15625q1.5625 0 2.453125 1.015625q0.890625 1.0 0.890625 2.5937653q0 1.609375 -0.921875 2.609375q-0.90625 0.984375 -2.421875 0.984375q-1.5 0 -2.421875 -0.96875q-0.921875 -0.984375 -0.921875 -2.625q0 -1.6406403 0.90625 -2.6250153q0.90625 -0.984375 2.4375 -0.984375zm-2.15625 3.6093903q0 1.1875 0.609375 1.890625q0.609375 0.703125 1.546875 0.703125q0.921875 0 1.53125 -0.703125q0.609375 -0.71875 0.609375 -1.890625q0 -1.1718903 -0.609375 -1.8906403q-0.59375 -0.71875 -1.546875 -0.71875q-0.90625 0 -1.53125 0.703125q-0.609375 0.703125 -0.609375 1.9062653zm10.168869 -3.6093903q1.25 0 1.8125 0.640625q0.5625 0.640625 0.5625 1.8125l0 4.5937653l-1.140625 0l0 -4.7031403q0 -0.59375 -0.375 -0.96875q-0.375 -0.375 -1.0312347 -0.375q-0.953125 0 -1.5 0.59375q-0.53125 0.578125 -0.53125 1.5156403l0 3.9375l-1.125 0l0 -6.8906403l1.0625 0l0 1.09375l0.03125 0q0.375 -0.640625 0.921875 -0.9375q0.546875 -0.3125 1.3124847 -0.3125zm9.3029785 -2.46875l5.015625 7.7187653l0.015625 0l0 -7.7187653l1.203125 0l0 9.51564l-1.390625 0l-4.96875 -7.6406403l-0.03125 0l0 7.6406403l-1.1875 0l0 -9.51564l1.34375 0z" fill-rule="nonzero"/><path fill="#000000" fill-opacity="0.0" d="m136.45538 200.42651l0 24.503937l20.566925 0" fill-rule="evenodd"/><path stroke="#595959" stroke-width="1.0" stroke-linejoin="round" stroke-linecap="butt" d="m136.45538 200.42651l0 24.503937l20.566925 0" fill-rule="evenodd"/><path fill="#000000" fill-opacity="0.0" d="m136.45538 200.42651l0 54.740158l20.566925 0" fill-rule="evenodd"/><path stroke="#595959" stroke-width="1.0" stroke-linejoin="round" stroke-linecap="butt" d="m136.45538 200.42651l0 54.740158l20.566925 0" fill-rule="evenodd"/><path fill="#000000" fill-opacity="0.0" d="m77.07218 58.217846l0 247.55907l19.433067 0" fill-rule="evenodd"/><path stroke="#595959" stroke-width="1.0" stroke-linejoin="round" stroke-linecap="butt" stroke-dasharray="1.0,3.0" d="m77.07218 58.217846l0 247.55907l19.433067 0" fill-rule="evenodd"/><path fill="#000000" fill-opacity="0.0" d="m77.07218 58.217846l0 141.64062l0.06298828 0l0 141.63496" fill-rule="evenodd"/><path stroke="#595959" stroke-width="1.0" stroke-linejoin="round" stroke-linecap="butt" stroke-dasharray="1.0,3.0" d="m77.07218 58.217846l0 141.64062l0.06298828 0l0 141.63496" fill-rule="evenodd"/></g></svg>
