<svg version="1.1" viewBox="0.0 0.0 527.2650918635171 215.6010498687664" fill="none" stroke="none" stroke-linecap="square" stroke-miterlimit="10" xmlns:xlink="http://www.w3.org/1999/xlink" xmlns="http://www.w3.org/2000/svg"><clipPath id="p.0"><path d="m0 0l527.2651 0l0 215.60104l-527.2651 0l0 -215.60104z" clip-rule="nonzero"/></clipPath><g clip-path="url(#p.0)"><path fill="#000000" fill-opacity="0.0" d="m0 0l527.2651 0l0 215.60104l-527.2651 0z" fill-rule="evenodd"/><path fill="#c9daf8" d="m18.774336 34.24375l0 0c0 -2.00914 1.6287289 -3.6378708 3.637869 -3.6378708l62.551037 0c0.96482086 0 1.8901291 0.383276 2.5723572 1.0655079c0.6822357 0.6822338 1.065506 1.6075382 1.065506 2.572363l0 14.551033c0 2.00914 -1.6287231 3.637867 -3.6378632 3.637867l-62.551037 0c-2.00914 0 -3.637869 -1.628727 -3.637869 -3.637867z" fill-rule="evenodd"/><path stroke="#595959" stroke-width="1.0" stroke-linejoin="round" stroke-linecap="butt" d="m18.774336 34.24375l0 0c0 -2.00914 1.6287289 -3.6378708 3.637869 -3.6378708l62.551037 0c0.96482086 0 1.8901291 0.383276 2.5723572 1.0655079c0.6822357 0.6822338 1.065506 1.6075382 1.065506 2.572363l0 14.551033c0 2.00914 -1.6287231 3.637867 -3.6378632 3.637867l-62.551037 0c-2.00914 0 -3.637869 -1.628727 -3.637869 -3.637867z" fill-rule="evenodd"/><path fill="#000000" d="m34.5717 37.46239q1.265625 0 2.0 0.625q0.75 0.609375 0.796875 1.796875l-0.953125 0q-0.09375 -0.78125 -0.5625 -1.171875q-0.46875 -0.390625 -1.328125 -0.390625q-0.8125 0 -1.265625 0.34375q-0.4375 0.328125 -0.4375 0.953125q0 0.453125 0.375 0.734375q0.390625 0.28125 2.0625 0.625q1.21875 0.25 1.828125 0.765625q0.609375 0.515625 0.609375 1.421875q0 1.0625 -0.875 1.671875q-0.859375 0.609375 -2.109375 0.609375q-1.375 0 -2.25 -0.6875q-0.8749981 -0.703125 -0.8906231 -2.0l0.9687481 0q0 0.859375 0.609375 1.34375q0.625 0.484375 1.59375 0.484375q0.921875 0 1.421875 -0.359375q0.515625 -0.359375 0.515625 -1.03125q0 -0.53125 -0.46875 -0.859375q-0.453125 -0.328125 -1.671875 -0.5625q-1.625 -0.3125 -2.1875 -0.796875q-0.5468731 -0.484375 -0.5468731 -1.28125q0 -1.03125 0.7812481 -1.625q0.78125 -0.609375 1.984375 -0.609375zm6.451584 2.15625q1.125 0 1.59375 0.40625q0.46875 0.40625 0.46875 1.078125q0 2.859375 0 3.171875q0 0.3125 0.28125 0.3125q0.0625 0 0.140625 -0.015625q0.078125 -0.015625 0.140625 -0.03125l0 0.703125q-0.125 0.0625 -0.296875 0.09375q-0.15625 0.046875 -0.34375 0.046875q-0.375 0 -0.578125 -0.203125q-0.203125 -0.21875 -0.203125 -0.640625q-0.359375 0.421875 -0.84375 0.640625q-0.484375 0.203125 -1.09375 0.203125q-0.84375 0 -1.328125 -0.390625q-0.484375 -0.40625 -0.484375 -1.15625q0 -0.734375 0.46875 -1.171875q0.46875 -0.4375 2.21875 -0.65625q0.59375 -0.078125 0.796875 -0.21875q0.21875 -0.15625 0.21875 -0.453125q0 -0.46875 -0.296875 -0.6875q-0.28125 -0.234375 -0.921875 -0.234375q-0.671875 0 -1.015625 0.265625q-0.328125 0.25 -0.359375 0.78125l-0.90625 0q0.046875 -0.90625 0.640625 -1.375q0.609375 -0.46875 1.703125 -0.46875zm-1.59375 4.15625q0 0.390625 0.28125 0.609375q0.28125 0.203125 0.78125 0.203125q0.765625 0 1.21875 -0.375q0.46875 -0.390625 0.46875 -0.859375l0 -0.9375q-0.234375 0.15625 -0.609375 0.21875q-0.359375 0.046875 -0.953125 0.140625q-0.609375 0.078125 -0.90625 0.328125q-0.28125 0.234375 -0.28125 0.671875zm7.707947 -4.15625q0.609375 0 0.984375 0.25q0.390625 0.25 0.53125 0.6875q0.28125 -0.4375 0.734375 -0.6875q0.453125 -0.25 1.0 -0.25q0.9375 0 1.375 0.421875q0.4531288 0.421875 0.4531288 1.140625l0 4.078125l-0.9062538 0l0 -3.65625q0 -0.59375 -0.25 -0.890625q-0.25 -0.296875 -0.8125 -0.296875q-0.671875 0 -1.0625 0.40625q-0.375 0.390625 -0.375 0.984375l0 3.453125l-0.90625 0l0 -3.65625q0 -0.59375 -0.25 -0.890625q-0.25 -0.296875 -0.78125 -0.296875q-0.4375 0 -0.765625 0.21875q-0.328125 0.203125 -0.515625 0.5625q-0.1875 0.359375 -0.1875 0.609375l0 3.453125l-0.90625 0l0 -5.515625l0.84375 0l0 0.8125l0.03125 0q0.3125 -0.46875 0.75 -0.703125q0.4375 -0.234375 1.015625 -0.234375zm9.152576 0q1.1875 0 1.859375 0.8125q0.6875 0.8125 0.6875 2.09375q0 1.28125 -0.6875 2.078125q-0.671875 0.78125 -1.828125 0.78125q-0.515625 0 -1.015625 -0.203125q-0.484375 -0.21875 -0.765625 -0.65625l-0.015625 0l0 2.84375l-0.90625 0l0 -7.625l0.90625 0l0 0.75l0.015625 0q0.21875 -0.421875 0.671875 -0.640625q0.453125 -0.234375 1.078125 -0.234375zm-1.796875 2.890625q0 0.953125 0.453125 1.515625q0.46875 0.5625 1.28125 0.5625q0.78125 0 1.203125 -0.5625q0.4375 -0.5625 0.4375 -1.5625q0 -0.890625 -0.453125 -1.46875q-0.453125 -0.578125 -1.25 -0.578125q-0.796875 0 -1.234375 0.59375q-0.4375 0.578125 -0.4375 1.5zm6.363617 -4.859375l0 7.609375l-0.90625 0l0 -7.609375l0.90625 0zm3.6955986 1.96875q1.1875 0 1.84375 0.859375q0.65625 0.859375 0.65625 2.1875l0 0.109375l-4.124996 0l0 0.0625q0 0.796875 0.453125 1.28125q0.46875 0.46875 1.2656212 0.46875q0.59375 0 0.953125 -0.28125q0.359375 -0.28125 0.46875 -0.796875l0.890625 0q-0.171875 0.921875 -0.796875 1.40625q-0.625 0.46875 -1.546875 0.46875q-0.8749962 0 -1.4843712 -0.390625q-0.59375 -0.390625 -0.875 -1.09375q-0.28125 -0.703125 -0.28125 -1.421875q0 -1.21875 0.734375 -2.03125q0.734375 -0.828125 1.8437462 -0.828125zm-1.6249962 2.359375l3.1562462 0q-0.03125 -0.671875 -0.484375 -1.109375q-0.4375 -0.453125 -1.109375 -0.453125q-0.6249962 0 -1.0624962 0.421875q-0.4375 0.421875 -0.5 1.140625zm11.137341 -4.28125l0 7.5625l-0.90625 0l0 -5.40625l-1.96875 0l0 -0.734375l0.03125 0q0.96875 0 1.484375 -0.34375q0.53125 -0.34375 0.65625 -1.078125l0.703125 0z" fill-rule="nonzero"/><path fill="#c9daf8" d="m70.68058 82.12623l0 0c0 -2.00914 1.6287308 -3.6378632 3.6378708 -3.6378632l62.55104 0c0.96481323 0 1.8901215 0.38327026 2.5723572 1.065506c0.6822357 0.6822281 1.065506 1.6075363 1.065506 2.5723572l0 14.551041c0 2.00914 -1.6287231 3.6378632 -3.6378632 3.6378632l-62.55104 0c-2.00914 0 -3.6378708 -1.6287231 -3.6378708 -3.6378632z" fill-rule="evenodd"/><path stroke="#595959" stroke-width="1.0" stroke-linejoin="round" stroke-linecap="butt" d="m70.68058 82.12623l0 0c0 -2.00914 1.6287308 -3.6378632 3.6378708 -3.6378632l62.55104 0c0.96481323 0 1.8901215 0.38327026 2.5723572 1.065506c0.6822357 0.6822281 1.065506 1.6075363 1.065506 2.5723572l0 14.551041c0 2.00914 -1.6287231 3.6378632 -3.6378632 3.6378632l-62.55104 0c-2.00914 0 -3.6378708 -1.6287231 -3.6378708 -3.6378632z" fill-rule="evenodd"/><path fill="#000000" d="m90.326515 85.34487q1.359375 0 2.21875 0.65625q0.859375 0.640625 1.0625 1.875l-1.015625 0q-0.15625 -0.8125 -0.75 -1.234375q-0.578125 -0.4375 -1.515625 -0.4375q-1.21875 0 -1.921875 0.90625q-0.6875 0.890625 -0.6875 2.328125q0 1.296875 0.71875 2.171875q0.71875 0.859375 1.890625 0.859375q1.09375 0 1.765625 -0.65625q0.6875 -0.65625 0.6875 -1.703125l0 -0.125l-2.4375 0l0 -0.84375l3.328125 0l0 4.0l-0.625 0l-0.28125 -0.953125q-0.40625 0.546875 -1.046875 0.84375q-0.640625 0.296875 -1.390625 0.296875q-1.546875 0 -2.59375 -1.109375q-1.03125 -1.125 -1.03125 -2.734375q0 -1.796875 0.96875 -2.96875q0.984375 -1.171875 2.65625 -1.171875zm7.429596 2.15625q0.03125 0 0.046875 0q0.03125 0 0.078125 0l0 0.96875q-1.015625 0 -1.5 0.546875q-0.484375 0.53125 -0.484375 1.65625l0 2.46875l-0.90625 0l0 -5.515625l0.84375 0l0 1.171875l0.03125 0q0.3125 -0.65625 0.765625 -0.96875q0.46875 -0.328125 1.125 -0.328125zm2.9965363 0q1.25 0 1.953125 0.8125q0.71875 0.8125 0.71875 2.078125q0 1.28125 -0.734375 2.078125q-0.71875 0.796875 -1.9375 0.796875q-1.203125 0 -1.9375 -0.78125q-0.734375 -0.78125 -0.734375 -2.09375q0 -1.3125 0.71875 -2.09375q0.71875 -0.796875 1.953125 -0.796875zm-1.71875 2.890625q0 0.953125 0.484375 1.515625q0.484375 0.5625 1.234375 0.5625q0.734375 0 1.21875 -0.5625q0.5 -0.578125 0.5 -1.515625q0 -0.9375 -0.484375 -1.515625q-0.484375 -0.578125 -1.25 -0.578125q-0.71875 0 -1.21875 0.578125q-0.484375 0.5625 -0.484375 1.515625zm6.3690186 -2.765625l0 3.765625q0 0.46875 0.296875 0.78125q0.296875 0.296875 0.8125 0.296875q0.78125 0 1.203125 -0.46875q0.4375 -0.484375 0.4375 -1.21875l0 -3.15625l0.90625 0l0 5.515625l-0.859375 0l0 -0.875l-0.015625 0q-0.3125 0.53125 -0.765625 0.765625q-0.453125 0.234375 -1.03125 0.234375q-0.96875 0 -1.4375 -0.484375q-0.453125 -0.5 -0.453125 -1.484375l0 -3.671875l0.90625 0zm7.7233734 -0.125q1.1875 0 1.859375 0.8125q0.6875 0.8125 0.6875 2.09375q0 1.28125 -0.6875 2.078125q-0.671875 0.78125 -1.828125 0.78125q-0.515625 0 -1.015625 -0.203125q-0.484375 -0.21875 -0.765625 -0.65625l-0.015625 0l0 2.84375l-0.90625 0l0 -7.625l0.90625 0l0 0.75l0.015625 0q0.21875 -0.421875 0.671875 -0.640625q0.453125 -0.234375 1.078125 -0.234375zm-1.796875 2.890625q0 0.953125 0.453125 1.515625q0.46875 0.5625 1.28125 0.5625q0.78125 0 1.203125 -0.5625q0.4375 -0.5625 0.4375 -1.5625q0 -0.890625 -0.453125 -1.46875q-0.453125 -0.578125 -1.25 -0.578125q-0.796875 0 -1.234375 0.59375q-0.4375 0.578125 -0.4375 1.5zm11.480515 -4.8125l0 7.5625l-0.90625 0l0 -5.40625l-1.96875 0l0 -0.734375l0.03125 0q0.96875 0 1.484375 -0.34375q0.53125 -0.34375 0.65625 -1.078125l0.703125 0z" fill-rule="nonzero"/><path fill="#c9daf8" d="m123.54324 130.00755l0 0c0 -2.0091324 1.6287308 -3.6378632 3.6378708 -3.6378632l105.48017 0c0.96481323 0 1.8901215 0.3832779 2.5723572 1.065506c0.6822357 0.6822357 1.065506 1.607544 1.065506 2.5723572l0 14.551041c0 2.00914 -1.6287231 3.6378632 -3.6378632 3.6378632l-105.48017 0l0 0c-2.00914 0 -3.6378708 -1.6287231 -3.6378708 -3.6378632z" fill-rule="evenodd"/><path stroke="#595959" stroke-width="1.0" stroke-linejoin="round" stroke-linecap="butt" d="m123.54324 130.00755l0 0c0 -2.0091324 1.6287308 -3.6378632 3.6378708 -3.6378632l105.48017 0c0.96481323 0 1.8901215 0.3832779 2.5723572 1.065506c0.6822357 0.6822357 1.065506 1.607544 1.065506 2.5723572l0 14.551041c0 2.00914 -1.6287231 3.6378632 -3.6378632 3.6378632l-105.48017 0l0 0c-2.00914 0 -3.6378708 -1.6287231 -3.6378708 -3.6378632z" fill-rule="evenodd"/><path fill="#000000" d="m143.44725 133.4137q1.734375 0 2.65625 0.921875q0.9375 0.90625 0.9375 2.703125q0 2.015625 -0.921875 3.0q-0.921875 0.984375 -2.671875 0.984375l-2.671875 0l0 -7.609375l2.671875 0zm0.0625 6.75q1.140625 0 1.828125 -0.734375q0.6875 -0.75 0.6875 -2.25q0 -1.515625 -0.625 -2.203125q-0.625 -0.703125 -1.859375 -0.703125l-1.75 0l0 5.890625l1.71875 0zm6.8780823 -4.78125q1.125 0 1.59375 0.40625q0.46875 0.40625 0.46875 1.078125q0 2.859375 0 3.171875q0 0.3125 0.28125 0.3125q0.0625 0 0.140625 -0.015625q0.078125 -0.015625 0.140625 -0.03125l0 0.703125q-0.125 0.0625 -0.296875 0.09375q-0.15625 0.046875 -0.34375 0.046875q-0.375 0 -0.578125 -0.203125q-0.203125 -0.21875 -0.203125 -0.640625q-0.359375 0.421875 -0.84375 0.640625q-0.484375 0.203125 -1.09375 0.203125q-0.84375 0 -1.328125 -0.390625q-0.484375 -0.40625 -0.484375 -1.15625q0 -0.734375 0.46875 -1.171875q0.46875 -0.4375 2.21875 -0.65625q0.59375 -0.078125 0.796875 -0.21875q0.21875 -0.15625 0.21875 -0.453125q0 -0.46875 -0.296875 -0.6875q-0.28125 -0.234375 -0.921875 -0.234375q-0.671875 0 -1.015625 0.265625q-0.328125 0.25 -0.359375 0.78125l-0.90625 0q0.046875 -0.90625 0.640625 -1.375q0.609375 -0.46875 1.703125 -0.46875zm-1.59375 4.15625q0 0.390625 0.28125 0.609375q0.28125 0.203125 0.78125 0.203125q0.765625 0 1.21875 -0.375q0.46875 -0.390625 0.46875 -0.859375l0 -0.9375q-0.234375 0.15625 -0.609375 0.21875q-0.359375 0.046875 -0.953125 0.140625q-0.609375 0.078125 -0.90625 0.328125q-0.28125 0.234375 -0.28125 0.671875zm6.317322 -5.671875l0 1.640625l1.09375 0l0 0.8125l-1.09375 0l0 3.4375q0 0.421875 0.265625 0.453125q0.28125 0.015625 0.578125 0.015625l0.25 0l0 0.796875l-0.734375 0q-0.75 0 -1.015625 -0.265625q-0.25 -0.265625 -0.25 -0.890625l0 -3.546875l-0.9375 0l0 -0.8125l0.9375 0l0 -1.640625l0.90625 0zm4.3560944 1.515625q1.125 0 1.59375 0.40625q0.46875 0.40625 0.46875 1.078125q0 2.859375 0 3.171875q0 0.3125 0.28125 0.3125q0.0625 0 0.140625 -0.015625q0.078125 -0.015625 0.140625 -0.03125l0 0.703125q-0.125 0.0625 -0.296875 0.09375q-0.15625 0.046875 -0.34375 0.046875q-0.375 0 -0.578125 -0.203125q-0.203125 -0.21875 -0.203125 -0.640625q-0.359375 0.421875 -0.84375 0.640625q-0.484375 0.203125 -1.09375 0.203125q-0.84375 0 -1.328125 -0.390625q-0.484375 -0.40625 -0.484375 -1.15625q0 -0.734375 0.46875 -1.171875q0.46875 -0.4375 2.21875 -0.65625q0.59375 -0.078125 0.796875 -0.21875q0.21875 -0.15625 0.21875 -0.453125q0 -0.46875 -0.296875 -0.6875q-0.28125 -0.234375 -0.921875 -0.234375q-0.671875 0 -1.015625 0.265625q-0.328125 0.25 -0.359375 0.78125l-0.90625 0q0.046875 -0.90625 0.640625 -1.375q0.609375 -0.46875 1.703125 -0.46875zm-1.59375 4.15625q0 0.390625 0.28125 0.609375q0.28125 0.203125 0.78125 0.203125q0.765625 0 1.21875 -0.375q0.46875 -0.390625 0.46875 -0.859375l0 -0.9375q-0.234375 0.15625 -0.609375 0.21875q-0.359375 0.046875 -0.953125 0.140625q-0.609375 0.078125 -0.90625 0.328125q-0.28125 0.234375 -0.28125 0.671875zm10.324844 -4.15625q1.0 0 1.625 0.484375q0.640625 0.484375 0.75 1.421875l-0.9375 0q-0.109375 -0.546875 -0.46875 -0.828125q-0.359375 -0.28125 -0.890625 -0.28125q-0.84375 0 -1.28125 0.578125q-0.4375 0.5625 -0.4375 1.578125q0 0.921875 0.421875 1.46875q0.4375 0.546875 1.1875 0.546875q0.65625 0 1.03125 -0.359375q0.390625 -0.359375 0.484375 -0.984375l0.921875 0q-0.15625 1.03125 -0.78125 1.59375q-0.625 0.546875 -1.65625 0.546875q-1.1875 0 -1.875 -0.75q-0.6875 -0.765625 -0.6875 -2.0625q0 -1.34375 0.6875 -2.140625q0.703125 -0.8125 1.90625 -0.8125zm5.801697 0q1.25 0 1.953125 0.8125q0.71875 0.8125 0.71875 2.078125q0 1.28125 -0.734375 2.078125q-0.71875 0.796875 -1.9375 0.796875q-1.203125 0 -1.9375 -0.78125q-0.734375 -0.78125 -0.734375 -2.09375q0 -1.3125 0.71875 -2.09375q0.71875 -0.796875 1.953125 -0.796875zm-1.71875 2.890625q0 0.953125 0.484375 1.515625q0.484375 0.5625 1.234375 0.5625q0.734375 0 1.21875 -0.5625q0.5 -0.578125 0.5 -1.515625q0 -0.9375 -0.484375 -1.515625q-0.484375 -0.578125 -1.25 -0.578125q-0.71875 0 -1.21875 0.578125q-0.484375 0.5625 -0.484375 1.515625zm6.4158936 -4.859375l0 7.609375l-0.90625 0l0 -7.609375l0.90625 0zm2.3674774 0l0 7.609375l-0.90625 0l0 -7.609375l0.90625 0zm3.6956024 1.96875q1.1875 0 1.84375 0.859375q0.65625 0.859375 0.65625 2.1875l0 0.109375l-4.125 0l0 0.0625q0 0.796875 0.453125 1.28125q0.46875 0.46875 1.265625 0.46875q0.59375 0 0.953125 -0.28125q0.359375 -0.28125 0.46875 -0.796875l0.890625 0q-0.171875 0.921875 -0.796875 1.40625q-0.625 0.46875 -1.546875 0.46875q-0.875 0 -1.484375 -0.390625q-0.59375 -0.390625 -0.875 -1.09375q-0.28125 -0.703125 -0.28125 -1.421875q0 -1.21875 0.734375 -2.03125q0.734375 -0.828125 1.84375 -0.828125zm-1.625 2.359375l3.15625 0q-0.03125 -0.671875 -0.484375 -1.109375q-0.4375 -0.453125 -1.109375 -0.453125q-0.625 0 -1.0625 0.421875q-0.4375 0.421875 -0.5 1.140625zm7.364197 -2.359375q1.0 0 1.625 0.484375q0.640625 0.484375 0.75 1.421875l-0.9375 0q-0.109375 -0.546875 -0.46875 -0.828125q-0.359375 -0.28125 -0.890625 -0.28125q-0.84375 0 -1.28125 0.578125q-0.4375 0.5625 -0.4375 1.578125q0 0.921875 0.421875 1.46875q0.4375 0.546875 1.1875 0.546875q0.65625 0 1.03125 -0.359375q0.390625 -0.359375 0.484375 -0.984375l0.921875 0q-0.15625 1.03125 -0.78125 1.59375q-0.625 0.546875 -1.65625 0.546875q-1.1875 0 -1.875 -0.75q-0.6875 -0.765625 -0.6875 -2.0625q0 -1.34375 0.6875 -2.140625q0.703125 -0.8125 1.90625 -0.8125zm4.676697 -1.515625l0 1.640625l1.09375 0l0 0.8125l-1.09375 0l0 3.4375q0 0.421875 0.265625 0.453125q0.28125 0.015625 0.578125 0.015625l0.25 0l0 0.796875l-0.734375 0q-0.75 0 -1.015625 -0.265625q-0.25 -0.265625 -0.25 -0.890625l0 -3.546875l-0.9375 0l0 -0.8125l0.9375 0l0 -1.640625l0.90625 0zm3.0592194 -0.453125l0 1.109375l-0.90625 0l0 -1.109375l0.90625 0zm0 2.09375l0 5.515625l-0.90625 0l0 -5.515625l0.90625 0zm3.7893524 -0.125q1.25 0 1.953125 0.8125q0.71875 0.8125 0.71875 2.078125q0 1.28125 -0.734375 2.078125q-0.71875 0.796875 -1.9375 0.796875q-1.203125 0 -1.9375 -0.78125q-0.734375 -0.78125 -0.734375 -2.09375q0 -1.3125 0.71875 -2.09375q0.71875 -0.796875 1.953125 -0.796875zm-1.71875 2.890625q0 0.953125 0.484375 1.515625q0.484375 0.5625 1.234375 0.5625q0.734375 0 1.21875 -0.5625q0.5 -0.578125 0.5 -1.515625q0 -0.9375 -0.484375 -1.515625q-0.484375 -0.578125 -1.25 -0.578125q-0.71875 0 -1.21875 0.578125q-0.484375 0.5625 -0.484375 1.515625zm8.119019 -2.890625q1.0 0 1.453125 0.515625q0.453125 0.515625 0.453125 1.453125l0 3.671875l-0.90625 0l0 -3.765625q0 -0.46875 -0.3125 -0.765625q-0.296875 -0.3125 -0.828125 -0.3125q-0.75 0 -1.1875 0.484375q-0.421875 0.46875 -0.421875 1.21875l0 3.140625l-0.90625 0l0 -5.515625l0.84375 0l0 0.875l0.03125 0q0.296875 -0.515625 0.734375 -0.75q0.4375 -0.25 1.046875 -0.25zm9.340271 -1.921875l0 7.5625l-0.90625 0l0 -5.40625l-1.96875 0l0 -0.734375l0.03125 0q0.96875 0 1.484375 -0.34375q0.53125 -0.34375 0.65625 -1.078125l0.703125 0z" fill-rule="nonzero"/><path fill="#c9daf8" d="m123.54324 186.24037l0 0c0 -2.00914 1.6287308 -3.6378784 3.6378708 -3.6378784l105.48017 0c0.96481323 0 1.8901215 0.38328552 2.5723572 1.065506c0.6822357 0.6822357 1.065506 1.607544 1.065506 2.5723724l0 14.551025c0 2.00914 -1.6287231 3.6378784 -3.6378632 3.6378784l-105.48017 0l0 0c-2.00914 0 -3.6378708 -1.6287384 -3.6378708 -3.6378784z" fill-rule="evenodd"/><path stroke="#595959" stroke-width="1.0" stroke-linejoin="round" stroke-linecap="butt" d="m123.54324 186.24037l0 0c0 -2.00914 1.6287308 -3.6378784 3.6378708 -3.6378784l105.48017 0c0.96481323 0 1.8901215 0.38328552 2.5723572 1.065506c0.6822357 0.6822357 1.065506 1.607544 1.065506 2.5723724l0 14.551025c0 2.00914 -1.6287231 3.6378784 -3.6378632 3.6378784l-105.48017 0l0 0c-2.00914 0 -3.6378708 -1.6287384 -3.6378708 -3.6378784z" fill-rule="evenodd"/><path fill="#000000" d="m142.5627 189.64651q1.734375 0 2.65625 0.921875q0.9375 0.90625 0.9375 2.703125q0 2.015625 -0.921875 3.0q-0.921875 0.984375 -2.671875 0.984375l-2.671875 0l0 -7.609375l2.671875 0zm0.0625 6.75q1.140625 0 1.828125 -0.734375q0.6875 -0.75 0.6875 -2.25q0 -1.515625 -0.625 -2.203125q-0.625 -0.703125 -1.859375 -0.703125l-1.75 0l0 5.890625l1.71875 0zm6.8780823 -4.78125q1.125 0 1.59375 0.40625q0.46875 0.40625 0.46875 1.078125q0 2.859375 0 3.171875q0 0.3125 0.28125 0.3125q0.0625 0 0.140625 -0.015625q0.078125 -0.015625 0.140625 -0.03125l0 0.703125q-0.125 0.0625 -0.296875 0.09375q-0.15625 0.046875 -0.34375 0.046875q-0.375 0 -0.578125 -0.203125q-0.203125 -0.21875 -0.203125 -0.640625q-0.359375 0.421875 -0.84375 0.640625q-0.484375 0.203125 -1.09375 0.203125q-0.84375 0 -1.328125 -0.390625q-0.484375 -0.40625 -0.484375 -1.15625q0 -0.734375 0.46875 -1.171875q0.46875 -0.4375 2.21875 -0.65625q0.59375 -0.078125 0.796875 -0.21875q0.21875 -0.15625 0.21875 -0.453125q0 -0.46875 -0.296875 -0.6875q-0.28125 -0.234375 -0.921875 -0.234375q-0.671875 0 -1.015625 0.265625q-0.328125 0.25 -0.359375 0.78125l-0.90625 0q0.046875 -0.90625 0.640625 -1.375q0.609375 -0.46875 1.703125 -0.46875zm-1.59375 4.15625q0 0.390625 0.28125 0.609375q0.28125 0.203125 0.78125 0.203125q0.765625 0 1.21875 -0.375q0.46875 -0.390625 0.46875 -0.859375l0 -0.9375q-0.234375 0.15625 -0.609375 0.21875q-0.359375 0.046875 -0.953125 0.140625q-0.609375 0.078125 -0.90625 0.328125q-0.28125 0.234375 -0.28125 0.671875zm6.317322 -5.671875l0 1.640625l1.09375 0l0 0.8125l-1.09375 0l0 3.4375q0 0.421875 0.265625 0.453125q0.28125 0.015625 0.578125 0.015625l0.25 0l0 0.796875l-0.734375 0q-0.75 0 -1.015625 -0.265625q-0.25 -0.265625 -0.25 -0.890625l0 -3.546875l-0.9375 0l0 -0.8125l0.9375 0l0 -1.640625l0.90625 0zm4.3560944 1.515625q1.125 0 1.59375 0.40625q0.46875 0.40625 0.46875 1.078125q0 2.859375 0 3.171875q0 0.3125 0.28125 0.3125q0.0625 0 0.140625 -0.015625q0.078125 -0.015625 0.140625 -0.03125l0 0.703125q-0.125 0.0625 -0.296875 0.09375q-0.15625 0.046875 -0.34375 0.046875q-0.375 0 -0.578125 -0.203125q-0.203125 -0.21875 -0.203125 -0.640625q-0.359375 0.421875 -0.84375 0.640625q-0.484375 0.203125 -1.09375 0.203125q-0.84375 0 -1.328125 -0.390625q-0.484375 -0.40625 -0.484375 -1.15625q0 -0.734375 0.46875 -1.171875q0.46875 -0.4375 2.21875 -0.65625q0.59375 -0.078125 0.796875 -0.21875q0.21875 -0.15625 0.21875 -0.453125q0 -0.46875 -0.296875 -0.6875q-0.28125 -0.234375 -0.921875 -0.234375q-0.671875 0 -1.015625 0.265625q-0.328125 0.25 -0.359375 0.78125l-0.90625 0q0.046875 -0.90625 0.640625 -1.375q0.609375 -0.46875 1.703125 -0.46875zm-1.59375 4.15625q0 0.390625 0.28125 0.609375q0.28125 0.203125 0.78125 0.203125q0.765625 0 1.21875 -0.375q0.46875 -0.390625 0.46875 -0.859375l0 -0.9375q-0.234375 0.15625 -0.609375 0.21875q-0.359375 0.046875 -0.953125 0.140625q-0.609375 0.078125 -0.90625 0.328125q-0.28125 0.234375 -0.28125 0.671875zm10.324844 -4.15625q1.0 0 1.625 0.484375q0.640625 0.484375 0.75 1.421875l-0.9375 0q-0.109375 -0.546875 -0.46875 -0.828125q-0.359375 -0.28125 -0.890625 -0.28125q-0.84375 0 -1.28125 0.578125q-0.4375 0.5625 -0.4375 1.578125q0 0.921875 0.421875 1.46875q0.4375 0.546875 1.1875 0.546875q0.65625 0 1.03125 -0.359375q0.390625 -0.359375 0.484375 -0.984375l0.921875 0q-0.15625 1.03125 -0.78125 1.59375q-0.625 0.546875 -1.65625 0.546875q-1.1875 0 -1.875 -0.75q-0.6875 -0.765625 -0.6875 -2.0625q0 -1.34375 0.6875 -2.140625q0.703125 -0.8125 1.90625 -0.8125zm5.801697 0q1.25 0 1.953125 0.8125q0.71875 0.8125 0.71875 2.078125q0 1.28125 -0.734375 2.078125q-0.71875 0.796875 -1.9375 0.796875q-1.203125 0 -1.9375 -0.78125q-0.734375 -0.78125 -0.734375 -2.09375q0 -1.3125 0.71875 -2.09375q0.71875 -0.796875 1.953125 -0.796875zm-1.71875 2.890625q0 0.953125 0.484375 1.515625q0.484375 0.5625 1.234375 0.5625q0.734375 0 1.21875 -0.5625q0.5 -0.578125 0.5 -1.515625q0 -0.9375 -0.484375 -1.515625q-0.484375 -0.578125 -1.25 -0.578125q-0.71875 0 -1.21875 0.578125q-0.484375 0.5625 -0.484375 1.515625zm6.4158936 -4.859375l0 7.609375l-0.90625 0l0 -7.609375l0.90625 0zm2.3674774 0l0 7.609375l-0.90625 0l0 -7.609375l0.90625 0zm3.6956024 1.96875q1.1875 0 1.84375 0.859375q0.65625 0.859375 0.65625 2.1875l0 0.109375l-4.125 0l0 0.0625q0 0.796875 0.453125 1.28125q0.46875 0.46875 1.265625 0.46875q0.59375 0 0.953125 -0.28125q0.359375 -0.28125 0.46875 -0.796875l0.890625 0q-0.171875 0.921875 -0.796875 1.40625q-0.625 0.46875 -1.546875 0.46875q-0.875 0 -1.484375 -0.390625q-0.59375 -0.390625 -0.875 -1.09375q-0.28125 -0.703125 -0.28125 -1.421875q0 -1.21875 0.734375 -2.03125q0.734375 -0.828125 1.84375 -0.828125zm-1.625 2.359375l3.15625 0q-0.03125 -0.671875 -0.484375 -1.109375q-0.4375 -0.453125 -1.109375 -0.453125q-0.625 0 -1.0625 0.421875q-0.4375 0.421875 -0.5 1.140625zm7.364197 -2.359375q1.0 0 1.625 0.484375q0.640625 0.484375 0.75 1.421875l-0.9375 0q-0.109375 -0.546875 -0.46875 -0.828125q-0.359375 -0.28125 -0.890625 -0.28125q-0.84375 0 -1.28125 0.578125q-0.4375 0.5625 -0.4375 1.578125q0 0.921875 0.421875 1.46875q0.4375 0.546875 1.1875 0.546875q0.65625 0 1.03125 -0.359375q0.390625 -0.359375 0.484375 -0.984375l0.921875 0q-0.15625 1.03125 -0.78125 1.59375q-0.625 0.546875 -1.65625 0.546875q-1.1875 0 -1.875 -0.75q-0.6875 -0.765625 -0.6875 -2.0625q0 -1.34375 0.6875 -2.140625q0.703125 -0.8125 1.90625 -0.8125zm4.676697 -1.515625l0 1.640625l1.09375 0l0 0.8125l-1.09375 0l0 3.4375q0 0.421875 0.265625 0.453125q0.28125 0.015625 0.578125 0.015625l0.25 0l0 0.796875l-0.734375 0q-0.75 0 -1.015625 -0.265625q-0.25 -0.265625 -0.25 -0.890625l0 -3.546875l-0.9375 0l0 -0.8125l0.9375 0l0 -1.640625l0.90625 0zm3.0592194 -0.453125l0 1.109375l-0.90625 0l0 -1.109375l0.90625 0zm0 2.09375l0 5.515625l-0.90625 0l0 -5.515625l0.90625 0zm3.7893524 -0.125q1.25 0 1.953125 0.8125q0.71875 0.8125 0.71875 2.078125q0 1.28125 -0.734375 2.078125q-0.71875 0.796875 -1.9375 0.796875q-1.203125 0 -1.9375 -0.78125q-0.734375 -0.78125 -0.734375 -2.09375q0 -1.3125 0.71875 -2.09375q0.71875 -0.796875 1.953125 -0.796875zm-1.71875 2.890625q0 0.953125 0.484375 1.515625q0.484375 0.5625 1.234375 0.5625q0.734375 0 1.21875 -0.5625q0.5 -0.578125 0.5 -1.515625q0 -0.9375 -0.484375 -1.515625q-0.484375 -0.578125 -1.25 -0.578125q-0.71875 0 -1.21875 0.578125q-0.484375 0.5625 -0.484375 1.515625zm8.119019 -2.890625q1.0 0 1.453125 0.515625q0.453125 0.515625 0.453125 1.453125l0 3.671875l-0.90625 0l0 -3.765625q0 -0.46875 -0.3125 -0.765625q-0.296875 -0.3125 -0.828125 -0.3125q-0.75 0 -1.1875 0.484375q-0.421875 0.46875 -0.421875 1.21875l0 3.140625l-0.90625 0l0 -5.515625l0.84375 0l0 0.875l0.03125 0q0.296875 -0.515625 0.734375 -0.75q0.4375 -0.25 1.046875 -0.25zm7.449646 -1.96875l4.0 6.171875l0.015625 0l0 -6.171875l0.96875 0l0 7.609375l-1.109375 0l-3.984375 -6.109375l-0.015625 0l0 6.109375l-0.953125 0l0 -7.609375l1.078125 0z" fill-rule="nonzero"/><path fill="#000000" fill-opacity="0.0" d="m105.59397 100.31513l0 36.976387l17.952751 0" fill-rule="evenodd"/><path stroke="#595959" stroke-width="1.0" stroke-linejoin="round" stroke-linecap="butt" d="m105.59397 100.31513l0 36.976387l17.952751 0" fill-rule="evenodd"/><path fill="#000000" fill-opacity="0.0" d="m105.59397 100.31513l0 93.196846l17.952751 0" fill-rule="evenodd"/><path stroke="#595959" stroke-width="1.0" stroke-linejoin="round" stroke-linecap="butt" d="m105.59397 100.31513l0 93.196846l17.952751 0" fill-rule="evenodd"/><path fill="#000000" fill-opacity="0.0" d="m53.68772 52.43265l0 36.976383l17.007874 0" fill-rule="evenodd"/><path stroke="#595959" stroke-width="1.0" stroke-linejoin="round" stroke-linecap="butt" d="m53.68772 52.43265l0 36.976383l17.007874 0" fill-rule="evenodd"/><path fill="#c9daf8" d="m105.58793 32.64042l69.385826 0l8.881882 8.881889l-8.881882 8.881889l-69.385826 0z" fill-rule="evenodd"/><path stroke="#434343" stroke-width="1.0" stroke-linejoin="round" stroke-linecap="butt" d="m105.58793 32.64042l69.385826 0l8.881882 8.881889l-8.881882 8.881889l-69.385826 0z" fill-rule="evenodd"/><path fill="#000000" d="m117.440094 46.841682l0 -6.703125l0.75 0l0 0.640625q0.265625 -0.375 0.59375 -0.5625q0.34375 -0.1875 0.8125 -0.1875q0.625 0 1.09375 0.328125q0.46875 0.3125 0.703125 0.90625q0.25 0.578125 0.25 1.265625q0 0.734375 -0.265625 1.328125q-0.265625 0.59375 -0.78125 0.921875q-0.5 0.3125 -1.0625 0.3125q-0.40625 0 -0.734375 -0.171875q-0.328125 -0.171875 -0.53125 -0.4375l0 2.359375l-0.828125 0zm0.75 -4.25q0 0.9375 0.375 1.390625q0.375 0.4375 0.921875 0.4375q0.546875 0 0.921875 -0.453125q0.390625 -0.46875 0.390625 -1.4375q0 -0.9375 -0.375 -1.390625q-0.375 -0.453125 -0.90625 -0.453125q-0.53125 0 -0.9375 0.484375q-0.390625 0.484375 -0.390625 1.421875zm4.437866 2.390625l0 -4.84375l0.734375 0l0 0.734375q0.28125 -0.515625 0.515625 -0.671875q0.25 -0.171875 0.53125 -0.171875q0.421875 0 0.84375 0.265625l-0.28125 0.765625q-0.296875 -0.171875 -0.609375 -0.171875q-0.265625 0 -0.484375 0.15625q-0.203125 0.15625 -0.296875 0.453125q-0.140625 0.4375 -0.140625 0.953125l0 2.53125l-0.8125 0zm6.4188385 -1.5625l0.84375 0.109375q-0.1875 0.75 -0.734375 1.15625q-0.546875 0.40625 -1.390625 0.40625q-1.0625 0 -1.6875 -0.65625q-0.609375 -0.65625 -0.609375 -1.828125q0 -1.21875 0.625 -1.890625q0.625 -0.6875 1.625 -0.6875q0.984375 0 1.59375 0.671875q0.609375 0.65625 0.609375 1.859375q0 0.0625 0 0.21875l-3.609375 0q0.046875 0.796875 0.453125 1.21875q0.40625 0.421875 1.015625 0.421875q0.453125 0 0.765625 -0.234375q0.3125 -0.234375 0.5 -0.765625zm-2.6875 -1.328125l2.703125 0q-0.0625 -0.609375 -0.3125 -0.90625q-0.390625 -0.46875 -1.015625 -0.46875q-0.5625 0 -0.953125 0.375q-0.375 0.375 -0.421875 1.0zm3.8128662 4.75l0 -0.59375l5.4375 0l0 0.59375l-5.4375 0zm9.250366 -3.421875l0.84375 0.109375q-0.1875 0.75 -0.734375 1.15625q-0.546875 0.40625 -1.390625 0.40625q-1.0625 0 -1.6875 -0.65625q-0.609375 -0.65625 -0.609375 -1.828125q0 -1.21875 0.625 -1.890625q0.625 -0.6875 1.625 -0.6875q0.984375 0 1.59375 0.671875q0.609375 0.65625 0.609375 1.859375q0 0.0625 0 0.21875l-3.609375 0q0.046875 0.796875 0.453125 1.21875q0.40625 0.421875 1.015625 0.421875q0.453125 0 0.765625 -0.234375q0.3125 -0.234375 0.5 -0.765625zm-2.6875 -1.328125l2.703125 0q-0.0625 -0.609375 -0.3125 -0.90625q-0.390625 -0.46875 -1.015625 -0.46875q-0.5625 0 -0.953125 0.375q-0.375 0.375 -0.421875 1.0zm4.015991 2.890625l1.765625 -2.515625l-1.625 -2.328125l1.015625 0l0.75 1.140625q0.203125 0.328125 0.34375 0.546875q0.1875 -0.3125 0.359375 -0.53125l0.8125 -1.15625l0.984375 0l-1.671875 2.28125l1.796875 2.5625l-1.0 0l-1.0 -1.5l-0.265625 -0.40625l-1.265625 1.90625l-1.0 0zm8.5234375 -1.5625l0.84375 0.109375q-0.1875 0.75 -0.734375 1.15625q-0.546875 0.40625 -1.390625 0.40625q-1.0625 0 -1.6875 -0.65625q-0.609375 -0.65625 -0.609375 -1.828125q0 -1.21875 0.625 -1.890625q0.625 -0.6875 1.625 -0.6875q0.984375 0 1.59375 0.671875q0.609375 0.65625 0.609375 1.859375q0 0.0625 0 0.21875l-3.609375 0q0.046875 0.796875 0.453125 1.21875q0.40625 0.421875 1.015625 0.421875q0.453125 0 0.765625 -0.234375q0.3125 -0.234375 0.5 -0.765625zm-2.6875 -1.328125l2.703125 0q-0.0625 -0.609375 -0.3125 -0.90625q-0.390625 -0.46875 -1.015625 -0.46875q-0.5625 0 -0.953125 0.375q-0.375 0.375 -0.421875 1.0zm7.719116 1.125l0.8125 0.09375q-0.125 0.84375 -0.671875 1.3125q-0.546875 0.46875 -1.34375 0.46875q-0.984375 0 -1.59375 -0.640625q-0.609375 -0.65625 -0.609375 -1.875q0 -0.78125 0.265625 -1.359375q0.265625 -0.59375 0.78125 -0.890625q0.53125 -0.296875 1.15625 -0.296875q0.796875 0 1.296875 0.40625q0.5 0.390625 0.640625 1.125l-0.796875 0.125q-0.109375 -0.484375 -0.40625 -0.71875q-0.28125 -0.25 -0.703125 -0.25q-0.609375 0 -1.0 0.4375q-0.390625 0.4375 -0.390625 1.40625q0 0.96875 0.375 1.421875q0.375 0.4375 0.984375 0.4375q0.46875 0 0.796875 -0.296875q0.328125 -0.296875 0.40625 -0.90625zm4.6796875 1.765625l0 -0.703125q-0.5625 0.8125 -1.53125 0.8125q-0.421875 0 -0.796875 -0.15625q-0.375 -0.171875 -0.5625 -0.421875q-0.171875 -0.25 -0.25 -0.609375q-0.046875 -0.234375 -0.046875 -0.765625l0 -3.0l0.828125 0l0 2.6875q0 0.640625 0.046875 0.875q0.078125 0.3125 0.328125 0.5q0.25 0.1875 0.609375 0.1875q0.375 0 0.703125 -0.1875q0.328125 -0.1875 0.453125 -0.515625q0.140625 -0.328125 0.140625 -0.953125l0 -2.59375l0.8125 0l0 4.84375l-0.734375 0zm3.8128662 -0.734375l0.109375 0.71875q-0.34375 0.078125 -0.609375 0.078125q-0.453125 0 -0.703125 -0.140625q-0.234375 -0.140625 -0.34375 -0.359375q-0.09375 -0.234375 -0.09375 -0.984375l0 -2.78125l-0.609375 0l0 -0.640625l0.609375 0l0 -1.1875l0.8125 -0.5l0 1.6875l0.828125 0l0 0.640625l-0.828125 0l0 2.828125q0 0.359375 0.046875 0.46875q0.046875 0.09375 0.140625 0.15625q0.09375 0.046875 0.28125 0.046875q0.140625 0 0.359375 -0.03125zm4.1072845 -0.828125l0.84375 0.109375q-0.1875 0.75 -0.734375 1.15625q-0.546875 0.40625 -1.390625 0.40625q-1.0625 0 -1.6875 -0.65625q-0.609375 -0.65625 -0.609375 -1.828125q0 -1.21875 0.625 -1.890625q0.625 -0.6875 1.625 -0.6875q0.984375 0 1.59375 0.671875q0.609375 0.65625 0.609375 1.859375q0 0.0625 0 0.21875l-3.609375 0q0.046875 0.796875 0.453125 1.21875q0.40625 0.421875 1.015625 0.421875q0.453125 0 0.765625 -0.234375q0.3125 -0.234375 0.5 -0.765625zm-2.6875 -1.328125l2.703125 0q-0.0625 -0.609375 -0.3125 -0.90625q-0.390625 -0.46875 -1.015625 -0.46875q-0.5625 0 -0.953125 0.375q-0.375 0.375 -0.421875 1.0z" fill-rule="nonzero"/><path fill="#c9daf8" d="m183.85472 32.64042l69.38583 0l8.881882 8.881889l-8.881882 8.881889l-69.38583 0l8.881897 -8.881889z" fill-rule="evenodd"/><path stroke="#434343" stroke-width="1.0" stroke-linejoin="round" stroke-linecap="butt" d="m183.85472 32.64042l69.38583 0l8.881882 8.881889l-8.881882 8.881889l-69.38583 0l8.881897 -8.881889z" fill-rule="evenodd"/><path fill="#000000" d="m210.57483 43.419807l0.84375 0.109375q-0.1875 0.75 -0.734375 1.15625q-0.546875 0.40625 -1.390625 0.40625q-1.0625 0 -1.6875 -0.65625q-0.609375 -0.65625 -0.609375 -1.828125q0 -1.21875 0.625 -1.890625q0.625 -0.6875 1.625 -0.6875q0.984375 0 1.59375 0.671875q0.609375 0.65625 0.609375 1.859375q0 0.0625 0 0.21875l-3.609375 0q0.046875 0.796875 0.453125 1.21875q0.40625 0.421875 1.015625 0.421875q0.453125 0 0.765625 -0.234375q0.3125 -0.234375 0.5 -0.765625zm-2.6875 -1.328125l2.703125 0q-0.0625 -0.609375 -0.3125 -0.90625q-0.390625 -0.46875 -1.015625 -0.46875q-0.5625 0 -0.953125 0.375q-0.375 0.375 -0.421875 1.0zm4.015991 2.890625l1.765625 -2.515625l-1.625 -2.328125l1.015625 0l0.75 1.140625q0.203125 0.328125 0.34375 0.546875q0.1875 -0.3125 0.359375 -0.53125l0.8125 -1.15625l0.984375 0l-1.671875 2.28125l1.796875 2.5625l-1.0 0l-1.0 -1.5l-0.265625 -0.40625l-1.265625 1.90625l-1.0 0zm8.5234375 -1.5625l0.84375 0.109375q-0.1875 0.75 -0.734375 1.15625q-0.546875 0.40625 -1.390625 0.40625q-1.0625 0 -1.6875 -0.65625q-0.609375 -0.65625 -0.609375 -1.828125q0 -1.21875 0.625 -1.890625q0.625 -0.6875 1.625 -0.6875q0.984375 0 1.59375 0.671875q0.609375 0.65625 0.609375 1.859375q0 0.0625 0 0.21875l-3.609375 0q0.046875 0.796875 0.453125 1.21875q0.40625 0.421875 1.015625 0.421875q0.453125 0 0.765625 -0.234375q0.3125 -0.234375 0.5 -0.765625zm-2.6875 -1.328125l2.703125 0q-0.0625 -0.609375 -0.3125 -0.90625q-0.390625 -0.46875 -1.015625 -0.46875q-0.5625 0 -0.953125 0.375q-0.375 0.375 -0.421875 1.0zm7.719116 1.125l0.8125 0.09375q-0.125 0.84375 -0.671875 1.3125q-0.546875 0.46875 -1.34375 0.46875q-0.984375 0 -1.59375 -0.640625q-0.609375 -0.65625 -0.609375 -1.875q0 -0.78125 0.265625 -1.359375q0.265625 -0.59375 0.78125 -0.890625q0.53125 -0.296875 1.15625 -0.296875q0.796875 0 1.296875 0.40625q0.5 0.390625 0.640625 1.125l-0.796875 0.125q-0.109375 -0.484375 -0.40625 -0.71875q-0.28125 -0.25 -0.703125 -0.25q-0.609375 0 -1.0 0.4375q-0.390625 0.4375 -0.390625 1.40625q0 0.96875 0.375 1.421875q0.375 0.4375 0.984375 0.4375q0.46875 0 0.796875 -0.296875q0.328125 -0.296875 0.40625 -0.90625zm4.6796875 1.765625l0 -0.703125q-0.5625 0.8125 -1.53125 0.8125q-0.421875 0 -0.796875 -0.15625q-0.375 -0.171875 -0.5625 -0.421875q-0.171875 -0.25 -0.25 -0.609375q-0.046875 -0.234375 -0.046875 -0.765625l0 -3.0l0.828125 0l0 2.6875q0 0.640625 0.046875 0.875q0.078125 0.3125 0.328125 0.5q0.25 0.1875 0.609375 0.1875q0.375 0 0.703125 -0.1875q0.328125 -0.1875 0.453125 -0.515625q0.140625 -0.328125 0.140625 -0.953125l0 -2.59375l0.8125 0l0 4.84375l-0.734375 0zm3.8128662 -0.734375l0.109375 0.71875q-0.34375 0.078125 -0.609375 0.078125q-0.453125 0 -0.703125 -0.140625q-0.234375 -0.140625 -0.34375 -0.359375q-0.09375 -0.234375 -0.09375 -0.984375l0 -2.78125l-0.609375 0l0 -0.640625l0.609375 0l0 -1.1875l0.8125 -0.5l0 1.6875l0.828125 0l0 0.640625l-0.828125 0l0 2.828125q0 0.359375 0.046875 0.46875q0.046875 0.09375 0.140625 0.15625q0.09375 0.046875 0.28125 0.046875q0.140625 0 0.359375 -0.03125zm4.1072845 -0.828125l0.84375 0.109375q-0.1875 0.75 -0.734375 1.15625q-0.546875 0.40625 -1.390625 0.40625q-1.0625 0 -1.6875 -0.65625q-0.609375 -0.65625 -0.609375 -1.828125q0 -1.21875 0.625 -1.890625q0.625 -0.6875 1.625 -0.6875q0.984375 0 1.59375 0.671875q0.609375 0.65625 0.609375 1.859375q0 0.0625 0 0.21875l-3.609375 0q0.046875 0.796875 0.453125 1.21875q0.40625 0.421875 1.015625 0.421875q0.453125 0 0.765625 -0.234375q0.3125 -0.234375 0.5 -0.765625zm-2.6875 -1.328125l2.703125 0q-0.0625 -0.609375 -0.3125 -0.90625q-0.390625 -0.46875 -1.015625 -0.46875q-0.5625 0 -0.953125 0.375q-0.375 0.375 -0.421875 1.0z" fill-rule="nonzero"/><path fill="#c9daf8" d="m262.12347 32.64042l85.35434 0l8.881866 8.881889l-8.881866 8.881889l-85.35434 0l8.881897 -8.881889z" fill-rule="evenodd"/><path stroke="#434343" stroke-width="1.0" stroke-linejoin="round" stroke-linecap="butt" d="m262.12347 32.64042l85.35434 0l8.881866 8.881889l-8.881866 8.881889l-85.35434 0l8.881897 -8.881889z" fill-rule="evenodd"/><path fill="#000000" d="m282.10568 46.841682l0 -6.703125l0.75 0l0 0.640625q0.265625 -0.375 0.59375 -0.5625q0.34375 -0.1875 0.8125 -0.1875q0.625 0 1.09375 0.328125q0.46875 0.3125 0.703125 0.90625q0.25 0.578125 0.25 1.265625q0 0.734375 -0.265625 1.328125q-0.265625 0.59375 -0.78125 0.921875q-0.5 0.3125 -1.0625 0.3125q-0.40625 0 -0.734375 -0.171875q-0.328125 -0.171875 -0.53125 -0.4375l0 2.359375l-0.828125 0zm0.75 -4.25q0 0.9375 0.375 1.390625q0.375 0.4375 0.921875 0.4375q0.546875 0 0.921875 -0.453125q0.390625 -0.46875 0.390625 -1.4375q0 -0.9375 -0.375 -1.390625q-0.375 -0.453125 -0.90625 -0.453125q-0.53125 0 -0.9375 0.484375q-0.390625 0.484375 -0.390625 1.421875zm4.140991 -0.03125q0 -1.34375 0.75 -1.984375q0.625 -0.546875 1.515625 -0.546875q1.0 0 1.625 0.65625q0.640625 0.65625 0.640625 1.8125q0 0.9375 -0.28125 1.46875q-0.28125 0.53125 -0.8125 0.828125q-0.53125 0.296875 -1.171875 0.296875q-1.015625 0 -1.640625 -0.640625q-0.625 -0.65625 -0.625 -1.890625zm0.84375 0q0 0.9375 0.40625 1.40625q0.40625 0.453125 1.015625 0.453125q0.609375 0 1.015625 -0.46875q0.40625 -0.46875 0.40625 -1.421875q0 -0.890625 -0.40625 -1.34375q-0.40625 -0.46875 -1.015625 -0.46875q-0.609375 0 -1.015625 0.46875q-0.40625 0.453125 -0.40625 1.375zm4.312866 0.984375l0.8125 -0.140625q0.078125 0.5 0.390625 0.765625q0.3125 0.25 0.859375 0.25q0.578125 0 0.84375 -0.234375q0.28125 -0.234375 0.28125 -0.53125q0 -0.28125 -0.25 -0.4375q-0.171875 -0.109375 -0.84375 -0.28125q-0.890625 -0.234375 -1.25 -0.390625q-0.34375 -0.171875 -0.53125 -0.46875q-0.171875 -0.296875 -0.171875 -0.640625q0 -0.328125 0.140625 -0.59375q0.15625 -0.28125 0.40625 -0.46875q0.203125 -0.140625 0.53125 -0.234375q0.328125 -0.109375 0.703125 -0.109375q0.578125 0 1.0 0.171875q0.4375 0.15625 0.640625 0.4375q0.203125 0.28125 0.28125 0.75l-0.796875 0.109375q-0.0625 -0.375 -0.328125 -0.578125q-0.265625 -0.203125 -0.734375 -0.203125q-0.5625 0 -0.8125 0.1875q-0.234375 0.171875 -0.234375 0.4375q0 0.15625 0.09375 0.28125q0.109375 0.125 0.3125 0.21875q0.125 0.046875 0.734375 0.203125q0.859375 0.234375 1.203125 0.390625q0.34375 0.140625 0.53125 0.421875q0.203125 0.28125 0.203125 0.703125q0 0.40625 -0.234375 0.78125q-0.234375 0.359375 -0.6875 0.5625q-0.453125 0.1875 -1.015625 0.1875q-0.953125 0 -1.453125 -0.390625q-0.484375 -0.390625 -0.625 -1.15625zm6.7890625 0.703125l0.109375 0.71875q-0.34375 0.078125 -0.609375 0.078125q-0.453125 0 -0.703125 -0.140625q-0.234375 -0.140625 -0.34375 -0.359375q-0.09375 -0.234375 -0.09375 -0.984375l0 -2.78125l-0.609375 0l0 -0.640625l0.609375 0l0 -1.1875l0.8125 -0.5l0 1.6875l0.828125 0l0 0.640625l-0.828125 0l0 2.828125q0 0.359375 0.046875 0.46875q0.046875 0.09375 0.140625 0.15625q0.09375 0.046875 0.28125 0.046875q0.140625 0 0.359375 -0.03125zm0.044769287 2.59375l0 -0.59375l5.4375 0l0 0.59375l-5.4375 0zm9.250366 -3.421875l0.84375 0.109375q-0.1875 0.75 -0.734375 1.15625q-0.546875 0.40625 -1.390625 0.40625q-1.0625 0 -1.6875 -0.65625q-0.609375 -0.65625 -0.609375 -1.828125q0 -1.21875 0.625 -1.890625q0.625 -0.6875 1.625 -0.6875q0.984375 0 1.59375 0.671875q0.609375 0.65625 0.609375 1.859375q0 0.0625 0 0.21875l-3.609375 0q0.046875 0.796875 0.453125 1.21875q0.40625 0.421875 1.015625 0.421875q0.453125 0 0.765625 -0.234375q0.3125 -0.234375 0.5 -0.765625zm-2.6875 -1.328125l2.703125 0q-0.0625 -0.609375 -0.3125 -0.90625q-0.390625 -0.46875 -1.015625 -0.46875q-0.5625 0 -0.953125 0.375q-0.375 0.375 -0.421875 1.0zm4.015991 2.890625l1.765625 -2.515625l-1.625 -2.328125l1.015625 0l0.75 1.140625q0.203125 0.328125 0.34375 0.546875q0.1875 -0.3125 0.359375 -0.53125l0.8125 -1.15625l0.984375 0l-1.671875 2.28125l1.796875 2.5625l-1.0 0l-1.0 -1.5l-0.265625 -0.40625l-1.265625 1.90625l-1.0 0zm8.5234375 -1.5625l0.84375 0.109375q-0.1875 0.75 -0.734375 1.15625q-0.546875 0.40625 -1.390625 0.40625q-1.0625 0 -1.6875 -0.65625q-0.609375 -0.65625 -0.609375 -1.828125q0 -1.21875 0.625 -1.890625q0.625 -0.6875 1.625 -0.6875q0.984375 0 1.59375 0.671875q0.609375 0.65625 0.609375 1.859375q0 0.0625 0 0.21875l-3.609375 0q0.046875 0.796875 0.453125 1.21875q0.40625 0.421875 1.015625 0.421875q0.453125 0 0.765625 -0.234375q0.3125 -0.234375 0.5 -0.765625zm-2.6875 -1.328125l2.703125 0q-0.0625 -0.609375 -0.3125 -0.90625q-0.390625 -0.46875 -1.015625 -0.46875q-0.5625 0 -0.953125 0.375q-0.375 0.375 -0.421875 1.0zm7.719116 1.125l0.8125 0.09375q-0.125 0.84375 -0.671875 1.3125q-0.546875 0.46875 -1.34375 0.46875q-0.984375 0 -1.59375 -0.640625q-0.609375 -0.65625 -0.609375 -1.875q0 -0.78125 0.265625 -1.359375q0.265625 -0.59375 0.78125 -0.890625q0.53125 -0.296875 1.15625 -0.296875q0.796875 0 1.296875 0.40625q0.5 0.390625 0.640625 1.125l-0.796875 0.125q-0.109375 -0.484375 -0.40625 -0.71875q-0.28125 -0.25 -0.703125 -0.25q-0.609375 0 -1.0 0.4375q-0.390625 0.4375 -0.390625 1.40625q0 0.96875 0.375 1.421875q0.375 0.4375 0.984375 0.4375q0.46875 0 0.796875 -0.296875q0.328125 -0.296875 0.40625 -0.90625zm4.6796875 1.765625l0 -0.703125q-0.5625 0.8125 -1.53125 0.8125q-0.421875 0 -0.796875 -0.15625q-0.375 -0.171875 -0.5625 -0.421875q-0.171875 -0.25 -0.25 -0.609375q-0.046875 -0.234375 -0.046875 -0.765625l0 -3.0l0.828125 0l0 2.6875q0 0.640625 0.046875 0.875q0.078125 0.3125 0.328125 0.5q0.25 0.1875 0.609375 0.1875q0.375 0 0.703125 -0.1875q0.328125 -0.1875 0.453125 -0.515625q0.140625 -0.328125 0.140625 -0.953125l0 -2.59375l0.8125 0l0 4.84375l-0.734375 0zm3.8128662 -0.734375l0.109375 0.71875q-0.34375 0.078125 -0.609375 0.078125q-0.453125 0 -0.703125 -0.140625q-0.234375 -0.140625 -0.34375 -0.359375q-0.09375 -0.234375 -0.09375 -0.984375l0 -2.78125l-0.609375 0l0 -0.640625l0.609375 0l0 -1.1875l0.8125 -0.5l0 1.6875l0.828125 0l0 0.640625l-0.828125 0l0 2.828125q0 0.359375 0.046875 0.46875q0.046875 0.09375 0.140625 0.15625q0.09375 0.046875 0.28125 0.046875q0.140625 0 0.359375 -0.03125zm4.1073 -0.828125l0.84375 0.109375q-0.1875 0.75 -0.734375 1.15625q-0.546875 0.40625 -1.390625 0.40625q-1.0625 0 -1.6875 -0.65625q-0.609375 -0.65625 -0.609375 -1.828125q0 -1.21875 0.625 -1.890625q0.625 -0.6875 1.625 -0.6875q0.984375 0 1.59375 0.671875q0.609375 0.65625 0.609375 1.859375q0 0.0625 0 0.21875l-3.609375 0q0.046875 0.796875 0.453125 1.21875q0.40625 0.421875 1.015625 0.421875q0.453125 0 0.765625 -0.234375q0.3125 -0.234375 0.5 -0.765625zm-2.6875 -1.328125l2.703125 0q-0.0625 -0.609375 -0.3125 -0.90625q-0.390625 -0.46875 -1.015625 -0.46875q-0.5625 0 -0.953125 0.375q-0.375 0.375 -0.421875 1.0z" fill-rule="nonzero"/><path fill="#c9daf8" d="m157.68127 81.89149l69.38582 0l8.881897 8.881889l-8.881897 8.881889l-69.38582 0z" fill-rule="evenodd"/><path stroke="#434343" stroke-width="1.0" stroke-linejoin="round" stroke-linecap="butt" d="m157.68127 81.89149l69.38582 0l8.881897 8.881889l-8.881897 8.881889l-69.38582 0z" fill-rule="evenodd"/><path fill="#000000" d="m169.53343 96.09275l0 -6.703125l0.75 0l0 0.640625q0.265625 -0.375 0.59375 -0.5625q0.34375 -0.1875 0.8125 -0.1875q0.625 0 1.09375 0.328125q0.46875 0.3125 0.703125 0.90625q0.25 0.578125 0.25 1.265625q0 0.734375 -0.265625 1.328125q-0.265625 0.59375 -0.78125 0.921875q-0.5 0.3125 -1.0625 0.3125q-0.40625 0 -0.734375 -0.171875q-0.328125 -0.171875 -0.53125 -0.4375l0 2.359375l-0.828125 0zm0.75 -4.25q0 0.9375 0.375 1.390625q0.375 0.4375 0.921875 0.4375q0.546875 0 0.921875 -0.453125q0.390625 -0.46875 0.390625 -1.4375q0 -0.9375 -0.375 -1.390625q-0.375 -0.453125 -0.90625 -0.453125q-0.53125 0 -0.9375 0.484375q-0.390625 0.484375 -0.390625 1.421875zm4.437866 2.390625l0 -4.84375l0.734375 0l0 0.734375q0.28125 -0.515625 0.515625 -0.671875q0.25 -0.171875 0.53125 -0.171875q0.421875 0 0.84375 0.265625l-0.28125 0.765625q-0.296875 -0.171875 -0.609375 -0.171875q-0.265625 0 -0.484375 0.15625q-0.203125 0.15625 -0.296875 0.453125q-0.140625 0.4375 -0.140625 0.953125l0 2.53125l-0.8125 0zm6.4188385 -1.5625l0.84375 0.109375q-0.1875 0.75 -0.734375 1.15625q-0.546875 0.40625 -1.390625 0.40625q-1.0625 0 -1.6875 -0.65625q-0.609375 -0.65625 -0.609375 -1.828125q0 -1.21875 0.625 -1.890625q0.625 -0.6875 1.625 -0.6875q0.984375 0 1.59375 0.671875q0.609375 0.65625 0.609375 1.859375q0 0.0625 0 0.21875l-3.609375 0q0.046875 0.796875 0.453125 1.21875q0.40625 0.421875 1.015625 0.421875q0.453125 0 0.765625 -0.234375q0.3125 -0.234375 0.5 -0.765625zm-2.6875 -1.328125l2.703125 0q-0.0625 -0.609375 -0.3125 -0.90625q-0.390625 -0.46875 -1.015625 -0.46875q-0.5625 0 -0.953125 0.375q-0.375 0.375 -0.421875 1.0zm3.8128662 4.75l0 -0.59375l5.4375 0l0 0.59375l-5.4375 0zm9.250366 -3.421875l0.84375 0.109375q-0.1875 0.75 -0.734375 1.15625q-0.546875 0.40625 -1.390625 0.40625q-1.0625 0 -1.6875 -0.65625q-0.609375 -0.65625 -0.609375 -1.828125q0 -1.21875 0.625 -1.890625q0.625 -0.6875 1.625 -0.6875q0.984375 0 1.59375 0.671875q0.609375 0.65625 0.609375 1.859375q0 0.0625 0 0.21875l-3.609375 0q0.046875 0.796875 0.453125 1.21875q0.40625 0.421875 1.015625 0.421875q0.453125 0 0.765625 -0.234375q0.3125 -0.234375 0.5 -0.765625zm-2.6875 -1.328125l2.703125 0q-0.0625 -0.609375 -0.3125 -0.90625q-0.390625 -0.46875 -1.015625 -0.46875q-0.5625 0 -0.953125 0.375q-0.375 0.375 -0.421875 1.0zm4.015991 2.890625l1.765625 -2.515625l-1.625 -2.328125l1.015625 0l0.75 1.140625q0.203125 0.328125 0.34375 0.546875q0.1875 -0.3125 0.359375 -0.53125l0.8125 -1.15625l0.984375 0l-1.671875 2.28125l1.796875 2.5625l-1.0 0l-1.0 -1.5l-0.265625 -0.40625l-1.265625 1.90625l-1.0 0zm8.5234375 -1.5625l0.84375 0.109375q-0.1875 0.75 -0.734375 1.15625q-0.546875 0.40625 -1.390625 0.40625q-1.0625 0 -1.6875 -0.65625q-0.609375 -0.65625 -0.609375 -1.828125q0 -1.21875 0.625 -1.890625q0.625 -0.6875 1.625 -0.6875q0.984375 0 1.59375 0.671875q0.609375 0.65625 0.609375 1.859375q0 0.0625 0 0.21875l-3.609375 0q0.046875 0.796875 0.453125 1.21875q0.40625 0.421875 1.015625 0.421875q0.453125 0 0.765625 -0.234375q0.3125 -0.234375 0.5 -0.765625zm-2.6875 -1.328125l2.703125 0q-0.0625 -0.609375 -0.3125 -0.90625q-0.390625 -0.46875 -1.015625 -0.46875q-0.5625 0 -0.953125 0.375q-0.375 0.375 -0.421875 1.0zm7.719116 1.125l0.8125 0.09375q-0.125 0.84375 -0.671875 1.3125q-0.546875 0.46875 -1.34375 0.46875q-0.984375 0 -1.59375 -0.640625q-0.609375 -0.65625 -0.609375 -1.875q0 -0.78125 0.265625 -1.359375q0.265625 -0.59375 0.78125 -0.890625q0.53125 -0.296875 1.15625 -0.296875q0.796875 0 1.296875 0.40625q0.5 0.390625 0.640625 1.125l-0.796875 0.125q-0.109375 -0.484375 -0.40625 -0.71875q-0.28125 -0.25 -0.703125 -0.25q-0.609375 0 -1.0 0.4375q-0.390625 0.4375 -0.390625 1.40625q0 0.96875 0.375 1.421875q0.375 0.4375 0.984375 0.4375q0.46875 0 0.796875 -0.296875q0.328125 -0.296875 0.40625 -0.90625zm4.6796875 1.765625l0 -0.703125q-0.5625 0.8125 -1.53125 0.8125q-0.421875 0 -0.796875 -0.15625q-0.375 -0.171875 -0.5625 -0.421875q-0.171875 -0.25 -0.25 -0.609375q-0.046875 -0.234375 -0.046875 -0.765625l0 -3.0l0.828125 0l0 2.6875q0 0.640625 0.046875 0.875q0.078125 0.3125 0.328125 0.5q0.25 0.1875 0.609375 0.1875q0.375 0 0.703125 -0.1875q0.328125 -0.1875 0.453125 -0.515625q0.140625 -0.328125 0.140625 -0.953125l0 -2.59375l0.8125 0l0 4.84375l-0.734375 0zm3.8128662 -0.734375l0.109375 0.71875q-0.34375 0.078125 -0.609375 0.078125q-0.453125 0 -0.703125 -0.140625q-0.234375 -0.140625 -0.34375 -0.359375q-0.09375 -0.234375 -0.09375 -0.984375l0 -2.78125l-0.609375 0l0 -0.640625l0.609375 0l0 -1.1875l0.8125 -0.5l0 1.6875l0.828125 0l0 0.640625l-0.828125 0l0 2.828125q0 0.359375 0.046875 0.46875q0.046875 0.09375 0.140625 0.15625q0.09375 0.046875 0.28125 0.046875q0.140625 0 0.359375 -0.03125zm4.1072845 -0.828125l0.84375 0.109375q-0.1875 0.75 -0.734375 1.15625q-0.546875 0.40625 -1.390625 0.40625q-1.0625 0 -1.6875 -0.65625q-0.609375 -0.65625 -0.609375 -1.828125q0 -1.21875 0.625 -1.890625q0.625 -0.6875 1.625 -0.6875q0.984375 0 1.59375 0.671875q0.609375 0.65625 0.609375 1.859375q0 0.0625 0 0.21875l-3.609375 0q0.046875 0.796875 0.453125 1.21875q0.40625 0.421875 1.015625 0.421875q0.453125 0 0.765625 -0.234375q0.3125 -0.234375 0.5 -0.765625zm-2.6875 -1.328125l2.703125 0q-0.0625 -0.609375 -0.3125 -0.90625q-0.390625 -0.46875 -1.015625 -0.46875q-0.5625 0 -0.953125 0.375q-0.375 0.375 -0.421875 1.0z" fill-rule="nonzero"/><path fill="#c9daf8" d="m235.94807 81.89149l69.38582 0l8.881897 8.881889l-8.881897 8.881889l-69.38582 0l8.881882 -8.881889z" fill-rule="evenodd"/><path stroke="#434343" stroke-width="1.0" stroke-linejoin="round" stroke-linecap="butt" d="m235.94807 81.89149l69.38582 0l8.881897 8.881889l-8.881897 8.881889l-69.38582 0l8.881882 -8.881889z" fill-rule="evenodd"/><path fill="#000000" d="m262.66818 92.670876l0.84375 0.109375q-0.1875 0.75 -0.734375 1.15625q-0.546875 0.40625 -1.390625 0.40625q-1.0625 0 -1.6875 -0.65625q-0.609375 -0.65625 -0.609375 -1.828125q0 -1.21875 0.625 -1.890625q0.625 -0.6875 1.625 -0.6875q0.984375 0 1.59375 0.671875q0.609375 0.65625 0.609375 1.859375q0 0.0625 0 0.21875l-3.609375 0q0.046875 0.796875 0.453125 1.21875q0.40625 0.421875 1.015625 0.421875q0.453125 0 0.765625 -0.234375q0.3125 -0.234375 0.5 -0.765625zm-2.6875 -1.328125l2.703125 0q-0.0625 -0.609375 -0.3125 -0.90625q-0.390625 -0.46875 -1.015625 -0.46875q-0.5625 0 -0.953125 0.375q-0.375 0.375 -0.421875 1.0zm4.015991 2.890625l1.765625 -2.515625l-1.625 -2.328125l1.015625 0l0.75 1.140625q0.203125 0.328125 0.34375 0.546875q0.1875 -0.3125 0.359375 -0.53125l0.8125 -1.15625l0.984375 0l-1.671875 2.28125l1.796875 2.5625l-1.0 0l-1.0 -1.5l-0.265625 -0.40625l-1.265625 1.90625l-1.0 0zm8.5234375 -1.5625l0.84375 0.109375q-0.1875 0.75 -0.734375 1.15625q-0.546875 0.40625 -1.390625 0.40625q-1.0625 0 -1.6875 -0.65625q-0.609375 -0.65625 -0.609375 -1.828125q0 -1.21875 0.625 -1.890625q0.625 -0.6875 1.625 -0.6875q0.984375 0 1.59375 0.671875q0.609375 0.65625 0.609375 1.859375q0 0.0625 0 0.21875l-3.609375 0q0.046875 0.796875 0.453125 1.21875q0.40625 0.421875 1.015625 0.421875q0.453125 0 0.765625 -0.234375q0.3125 -0.234375 0.5 -0.765625zm-2.6875 -1.328125l2.703125 0q-0.0625 -0.609375 -0.3125 -0.90625q-0.390625 -0.46875 -1.015625 -0.46875q-0.5625 0 -0.953125 0.375q-0.375 0.375 -0.421875 1.0zm7.719116 1.125l0.8125 0.09375q-0.125 0.84375 -0.671875 1.3125q-0.546875 0.46875 -1.34375 0.46875q-0.984375 0 -1.59375 -0.640625q-0.609375 -0.65625 -0.609375 -1.875q0 -0.78125 0.265625 -1.359375q0.265625 -0.59375 0.78125 -0.890625q0.53125 -0.296875 1.15625 -0.296875q0.796875 0 1.296875 0.40625q0.5 0.390625 0.640625 1.125l-0.796875 0.125q-0.109375 -0.484375 -0.40625 -0.71875q-0.28125 -0.25 -0.703125 -0.25q-0.609375 0 -1.0 0.4375q-0.390625 0.4375 -0.390625 1.40625q0 0.96875 0.375 1.421875q0.375 0.4375 0.984375 0.4375q0.46875 0 0.796875 -0.296875q0.328125 -0.296875 0.40625 -0.90625zm4.6796875 1.765625l0 -0.703125q-0.5625 0.8125 -1.53125 0.8125q-0.421875 0 -0.796875 -0.15625q-0.375 -0.171875 -0.5625 -0.421875q-0.171875 -0.25 -0.25 -0.609375q-0.046875 -0.234375 -0.046875 -0.765625l0 -3.0l0.828125 0l0 2.6875q0 0.640625 0.046875 0.875q0.078125 0.3125 0.328125 0.5q0.25 0.1875 0.609375 0.1875q0.375 0 0.703125 -0.1875q0.328125 -0.1875 0.453125 -0.515625q0.140625 -0.328125 0.140625 -0.953125l0 -2.59375l0.8125 0l0 4.84375l-0.734375 0zm3.8128662 -0.734375l0.109375 0.71875q-0.34375 0.078125 -0.609375 0.078125q-0.453125 0 -0.703125 -0.140625q-0.234375 -0.140625 -0.34375 -0.359375q-0.09375 -0.234375 -0.09375 -0.984375l0 -2.78125l-0.609375 0l0 -0.640625l0.609375 0l0 -1.1875l0.8125 -0.5l0 1.6875l0.828125 0l0 0.640625l-0.828125 0l0 2.828125q0 0.359375 0.046875 0.46875q0.046875 0.09375 0.140625 0.15625q0.09375 0.046875 0.28125 0.046875q0.140625 0 0.359375 -0.03125zm4.1072693 -0.828125l0.84375 0.109375q-0.1875 0.75 -0.734375 1.15625q-0.546875 0.40625 -1.390625 0.40625q-1.0625 0 -1.6875 -0.65625q-0.609375 -0.65625 -0.609375 -1.828125q0 -1.21875 0.625 -1.890625q0.625 -0.6875 1.625 -0.6875q0.984375 0 1.59375 0.671875q0.609375 0.65625 0.609375 1.859375q0 0.0625 0 0.21875l-3.609375 0q0.046875 0.796875 0.453125 1.21875q0.40625 0.421875 1.015625 0.421875q0.453125 0 0.765625 -0.234375q0.3125 -0.234375 0.5 -0.765625zm-2.6875 -1.328125l2.703125 0q-0.0625 -0.609375 -0.3125 -0.90625q-0.390625 -0.46875 -1.015625 -0.46875q-0.5625 0 -0.953125 0.375q-0.375 0.375 -0.421875 1.0z" fill-rule="nonzero"/><path fill="#c9daf8" d="m314.21683 81.89149l85.35431 0l8.881897 8.881889l-8.881897 8.881889l-85.35431 0l8.881866 -8.881889z" fill-rule="evenodd"/><path stroke="#434343" stroke-width="1.0" stroke-linejoin="round" stroke-linecap="butt" d="m314.21683 81.89149l85.35431 0l8.881897 8.881889l-8.881897 8.881889l-85.35431 0l8.881866 -8.881889z" fill-rule="evenodd"/><path fill="#000000" d="m334.199 96.09275l0 -6.703125l0.75 0l0 0.640625q0.265625 -0.375 0.59375 -0.5625q0.34375 -0.1875 0.8125 -0.1875q0.625 0 1.09375 0.328125q0.46875 0.3125 0.703125 0.90625q0.25 0.578125 0.25 1.265625q0 0.734375 -0.265625 1.328125q-0.265625 0.59375 -0.78125 0.921875q-0.5 0.3125 -1.0625 0.3125q-0.40625 0 -0.734375 -0.171875q-0.328125 -0.171875 -0.53125 -0.4375l0 2.359375l-0.828125 0zm0.75 -4.25q0 0.9375 0.375 1.390625q0.375 0.4375 0.921875 0.4375q0.546875 0 0.921875 -0.453125q0.390625 -0.46875 0.390625 -1.4375q0 -0.9375 -0.375 -1.390625q-0.375 -0.453125 -0.90625 -0.453125q-0.53125 0 -0.9375 0.484375q-0.390625 0.484375 -0.390625 1.421875zm4.140991 -0.03125q0 -1.34375 0.75 -1.984375q0.625 -0.546875 1.515625 -0.546875q1.0 0 1.625 0.65625q0.640625 0.65625 0.640625 1.8125q0 0.9375 -0.28125 1.46875q-0.28125 0.53125 -0.8125 0.828125q-0.53125 0.296875 -1.171875 0.296875q-1.015625 0 -1.640625 -0.640625q-0.625 -0.65625 -0.625 -1.890625zm0.84375 0q0 0.9375 0.40625 1.40625q0.40625 0.453125 1.015625 0.453125q0.609375 0 1.015625 -0.46875q0.40625 -0.46875 0.40625 -1.421875q0 -0.890625 -0.40625 -1.34375q-0.40625 -0.46875 -1.015625 -0.46875q-0.609375 0 -1.015625 0.46875q-0.40625 0.453125 -0.40625 1.375zm4.312866 0.984375l0.8125 -0.140625q0.078125 0.5 0.390625 0.765625q0.3125 0.25 0.859375 0.25q0.578125 0 0.84375 -0.234375q0.28125 -0.234375 0.28125 -0.53125q0 -0.28125 -0.25 -0.4375q-0.171875 -0.109375 -0.84375 -0.28125q-0.890625 -0.234375 -1.25 -0.390625q-0.34375 -0.171875 -0.53125 -0.46875q-0.171875 -0.296875 -0.171875 -0.640625q0 -0.328125 0.140625 -0.59375q0.15625 -0.28125 0.40625 -0.46875q0.203125 -0.140625 0.53125 -0.234375q0.328125 -0.109375 0.703125 -0.109375q0.578125 0 1.0 0.171875q0.4375 0.15625 0.640625 0.4375q0.203125 0.28125 0.28125 0.75l-0.796875 0.109375q-0.0625 -0.375 -0.328125 -0.578125q-0.265625 -0.203125 -0.734375 -0.203125q-0.5625 0 -0.8125 0.1875q-0.234375 0.171875 -0.234375 0.4375q0 0.15625 0.09375 0.28125q0.109375 0.125 0.3125 0.21875q0.125 0.046875 0.734375 0.203125q0.859375 0.234375 1.203125 0.390625q0.34375 0.140625 0.53125 0.421875q0.203125 0.28125 0.203125 0.703125q0 0.40625 -0.234375 0.78125q-0.234375 0.359375 -0.6875 0.5625q-0.453125 0.1875 -1.015625 0.1875q-0.953125 0 -1.453125 -0.390625q-0.484375 -0.390625 -0.625 -1.15625zm6.7890625 0.703125l0.109375 0.71875q-0.34375 0.078125 -0.609375 0.078125q-0.453125 0 -0.703125 -0.140625q-0.234375 -0.140625 -0.34375 -0.359375q-0.09375 -0.234375 -0.09375 -0.984375l0 -2.78125l-0.609375 0l0 -0.640625l0.609375 0l0 -1.1875l0.8125 -0.5l0 1.6875l0.828125 0l0 0.640625l-0.828125 0l0 2.828125q0 0.359375 0.046875 0.46875q0.046875 0.09375 0.140625 0.15625q0.09375 0.046875 0.28125 0.046875q0.140625 0 0.359375 -0.03125zm0.044799805 2.59375l0 -0.59375l5.4375 0l0 0.59375l-5.4375 0zm9.250366 -3.421875l0.84375 0.109375q-0.1875 0.75 -0.734375 1.15625q-0.546875 0.40625 -1.390625 0.40625q-1.0625 0 -1.6875 -0.65625q-0.609375 -0.65625 -0.609375 -1.828125q0 -1.21875 0.625 -1.890625q0.625 -0.6875 1.625 -0.6875q0.984375 0 1.59375 0.671875q0.609375 0.65625 0.609375 1.859375q0 0.0625 0 0.21875l-3.609375 0q0.046875 0.796875 0.453125 1.21875q0.40625 0.421875 1.015625 0.421875q0.453125 0 0.765625 -0.234375q0.3125 -0.234375 0.5 -0.765625zm-2.6875 -1.328125l2.703125 0q-0.0625 -0.609375 -0.3125 -0.90625q-0.390625 -0.46875 -1.015625 -0.46875q-0.5625 0 -0.953125 0.375q-0.375 0.375 -0.421875 1.0zm4.015991 2.890625l1.765625 -2.515625l-1.625 -2.328125l1.015625 0l0.75 1.140625q0.203125 0.328125 0.34375 0.546875q0.1875 -0.3125 0.359375 -0.53125l0.8125 -1.15625l0.984375 0l-1.671875 2.28125l1.796875 2.5625l-1.0 0l-1.0 -1.5l-0.265625 -0.40625l-1.265625 1.90625l-1.0 0zm8.5234375 -1.5625l0.84375 0.109375q-0.1875 0.75 -0.734375 1.15625q-0.546875 0.40625 -1.390625 0.40625q-1.0625 0 -1.6875 -0.65625q-0.609375 -0.65625 -0.609375 -1.828125q0 -1.21875 0.625 -1.890625q0.625 -0.6875 1.625 -0.6875q0.984375 0 1.59375 0.671875q0.609375 0.65625 0.609375 1.859375q0 0.0625 0 0.21875l-3.609375 0q0.046875 0.796875 0.453125 1.21875q0.40625 0.421875 1.015625 0.421875q0.453125 0 0.765625 -0.234375q0.3125 -0.234375 0.5 -0.765625zm-2.6875 -1.328125l2.703125 0q-0.0625 -0.609375 -0.3125 -0.90625q-0.390625 -0.46875 -1.015625 -0.46875q-0.5625 0 -0.953125 0.375q-0.375 0.375 -0.421875 1.0zm7.719116 1.125l0.8125 0.09375q-0.125 0.84375 -0.671875 1.3125q-0.546875 0.46875 -1.34375 0.46875q-0.984375 0 -1.59375 -0.640625q-0.609375 -0.65625 -0.609375 -1.875q0 -0.78125 0.265625 -1.359375q0.265625 -0.59375 0.78125 -0.890625q0.53125 -0.296875 1.15625 -0.296875q0.796875 0 1.296875 0.40625q0.5 0.390625 0.640625 1.125l-0.796875 0.125q-0.109375 -0.484375 -0.40625 -0.71875q-0.28125 -0.25 -0.703125 -0.25q-0.609375 0 -1.0 0.4375q-0.390625 0.4375 -0.390625 1.40625q0 0.96875 0.375 1.421875q0.375 0.4375 0.984375 0.4375q0.46875 0 0.796875 -0.296875q0.328125 -0.296875 0.40625 -0.90625zm4.6796875 1.765625l0 -0.703125q-0.5625 0.8125 -1.53125 0.8125q-0.421875 0 -0.796875 -0.15625q-0.375 -0.171875 -0.5625 -0.421875q-0.171875 -0.25 -0.25 -0.609375q-0.046875 -0.234375 -0.046875 -0.765625l0 -3.0l0.828125 0l0 2.6875q0 0.640625 0.046875 0.875q0.078125 0.3125 0.328125 0.5q0.25 0.1875 0.609375 0.1875q0.375 0 0.703125 -0.1875q0.328125 -0.1875 0.453125 -0.515625q0.140625 -0.328125 0.140625 -0.953125l0 -2.59375l0.8125 0l0 4.84375l-0.734375 0zm3.8128662 -0.734375l0.109375 0.71875q-0.34375 0.078125 -0.609375 0.078125q-0.453125 0 -0.703125 -0.140625q-0.234375 -0.140625 -0.34375 -0.359375q-0.09375 -0.234375 -0.09375 -0.984375l0 -2.78125l-0.609375 0l0 -0.640625l0.609375 0l0 -1.1875l0.8125 -0.5l0 1.6875l0.828125 0l0 0.640625l-0.828125 0l0 2.828125q0 0.359375 0.046875 0.46875q0.046875 0.09375 0.140625 0.15625q0.09375 0.046875 0.28125 0.046875q0.140625 0 0.359375 -0.03125zm4.1072693 -0.828125l0.84375 0.109375q-0.1875 0.75 -0.734375 1.15625q-0.546875 0.40625 -1.390625 0.40625q-1.0625 0 -1.6875 -0.65625q-0.609375 -0.65625 -0.609375 -1.828125q0 -1.21875 0.625 -1.890625q0.625 -0.6875 1.625 -0.6875q0.984375 0 1.59375 0.671875q0.609375 0.65625 0.609375 1.859375q0 0.0625 0 0.21875l-3.609375 0q0.046875 0.796875 0.453125 1.21875q0.40625 0.421875 1.015625 0.421875q0.453125 0 0.765625 -0.234375q0.3125 -0.234375 0.5 -0.765625zm-2.6875 -1.328125l2.703125 0q-0.0625 -0.609375 -0.3125 -0.90625q-0.390625 -0.46875 -1.015625 -0.46875q-0.5625 0 -0.953125 0.375q-0.375 0.375 -0.421875 1.0z" fill-rule="nonzero"/><path fill="#c9daf8" d="m252.45123 128.40681l69.38583 0l8.881866 8.881897l-8.881866 8.881882l-69.38583 0z" fill-rule="evenodd"/><path stroke="#434343" stroke-width="1.0" stroke-linejoin="round" stroke-linecap="butt" d="m252.45123 128.40681l69.38583 0l8.881866 8.881897l-8.881866 8.881882l-69.38583 0z" fill-rule="evenodd"/><path fill="#000000" d="m264.3034 142.60808l0 -6.703125l0.75 0l0 0.640625q0.265625 -0.375 0.59375 -0.5625q0.34375 -0.1875 0.8125 -0.1875q0.625 0 1.09375 0.328125q0.46875 0.3125 0.703125 0.90625q0.25 0.578125 0.25 1.265625q0 0.734375 -0.265625 1.328125q-0.265625 0.59375 -0.78125 0.921875q-0.5 0.3125 -1.0625 0.3125q-0.40625 0 -0.734375 -0.171875q-0.328125 -0.171875 -0.53125 -0.4375l0 2.359375l-0.828125 0zm0.75 -4.25q0 0.9375 0.375 1.390625q0.375 0.4375 0.921875 0.4375q0.546875 0 0.921875 -0.453125q0.390625 -0.46875 0.390625 -1.4375q0 -0.9375 -0.375 -1.390625q-0.375 -0.453125 -0.90625 -0.453125q-0.53125 0 -0.9375 0.484375q-0.390625 0.484375 -0.390625 1.421875zm4.437866 2.390625l0 -4.84375l0.734375 0l0 0.734375q0.28125 -0.515625 0.515625 -0.671875q0.25 -0.171875 0.53125 -0.171875q0.421875 0 0.84375 0.265625l-0.28125 0.765625q-0.296875 -0.171875 -0.609375 -0.171875q-0.265625 0 -0.484375 0.15625q-0.203125 0.15625 -0.296875 0.453125q-0.140625 0.4375 -0.140625 0.953125l0 2.53125l-0.8125 0zm6.4188232 -1.5625l0.84375 0.109375q-0.1875 0.75 -0.734375 1.15625q-0.546875 0.40625 -1.390625 0.40625q-1.0625 0 -1.6875 -0.65625q-0.609375 -0.65625 -0.609375 -1.828125q0 -1.21875 0.625 -1.890625q0.625 -0.6875 1.625 -0.6875q0.984375 0 1.59375 0.671875q0.609375 0.65625 0.609375 1.859375q0 0.0625 0 0.21875l-3.609375 0q0.046875 0.796875 0.453125 1.21875q0.40625 0.421875 1.015625 0.421875q0.453125 0 0.765625 -0.234375q0.3125 -0.234375 0.5 -0.765625zm-2.6875 -1.328125l2.703125 0q-0.0625 -0.609375 -0.3125 -0.90625q-0.390625 -0.46875 -1.015625 -0.46875q-0.5625 0 -0.953125 0.375q-0.375 0.375 -0.421875 1.0zm3.8128662 4.75l0 -0.59375l5.4375 0l0 0.59375l-5.4375 0zm9.250366 -3.421875l0.84375 0.109375q-0.1875 0.75 -0.734375 1.15625q-0.546875 0.40625 -1.390625 0.40625q-1.0625 0 -1.6875 -0.65625q-0.609375 -0.65625 -0.609375 -1.828125q0 -1.21875 0.625 -1.890625q0.625 -0.6875 1.625 -0.6875q0.984375 0 1.59375 0.671875q0.609375 0.65625 0.609375 1.859375q0 0.0625 0 0.21875l-3.609375 0q0.046875 0.796875 0.453125 1.21875q0.40625 0.421875 1.015625 0.421875q0.453125 0 0.765625 -0.234375q0.3125 -0.234375 0.5 -0.765625zm-2.6875 -1.328125l2.703125 0q-0.0625 -0.609375 -0.3125 -0.90625q-0.390625 -0.46875 -1.015625 -0.46875q-0.5625 0 -0.953125 0.375q-0.375 0.375 -0.421875 1.0zm4.015991 2.890625l1.765625 -2.515625l-1.625 -2.328125l1.015625 0l0.75 1.140625q0.203125 0.328125 0.34375 0.546875q0.1875 -0.3125 0.359375 -0.53125l0.8125 -1.15625l0.984375 0l-1.671875 2.28125l1.796875 2.5625l-1.0 0l-1.0 -1.5l-0.265625 -0.40625l-1.265625 1.90625l-1.0 0zm8.5234375 -1.5625l0.84375 0.109375q-0.1875 0.75 -0.734375 1.15625q-0.546875 0.40625 -1.390625 0.40625q-1.0625 0 -1.6875 -0.65625q-0.609375 -0.65625 -0.609375 -1.828125q0 -1.21875 0.625 -1.890625q0.625 -0.6875 1.625 -0.6875q0.984375 0 1.59375 0.671875q0.609375 0.65625 0.609375 1.859375q0 0.0625 0 0.21875l-3.609375 0q0.046875 0.796875 0.453125 1.21875q0.40625 0.421875 1.015625 0.421875q0.453125 0 0.765625 -0.234375q0.3125 -0.234375 0.5 -0.765625zm-2.6875 -1.328125l2.703125 0q-0.0625 -0.609375 -0.3125 -0.90625q-0.390625 -0.46875 -1.015625 -0.46875q-0.5625 0 -0.953125 0.375q-0.375 0.375 -0.421875 1.0zm7.719116 1.125l0.8125 0.09375q-0.125 0.84375 -0.671875 1.3125q-0.546875 0.46875 -1.34375 0.46875q-0.984375 0 -1.59375 -0.640625q-0.609375 -0.65625 -0.609375 -1.875q0 -0.78125 0.265625 -1.359375q0.265625 -0.59375 0.78125 -0.890625q0.53125 -0.296875 1.15625 -0.296875q0.796875 0 1.296875 0.40625q0.5 0.390625 0.640625 1.125l-0.796875 0.125q-0.109375 -0.484375 -0.40625 -0.71875q-0.28125 -0.25 -0.703125 -0.25q-0.609375 0 -1.0 0.4375q-0.390625 0.4375 -0.390625 1.40625q0 0.96875 0.375 1.421875q0.375 0.4375 0.984375 0.4375q0.46875 0 0.796875 -0.296875q0.328125 -0.296875 0.40625 -0.90625zm4.6796875 1.765625l0 -0.703125q-0.5625 0.8125 -1.53125 0.8125q-0.421875 0 -0.796875 -0.15625q-0.375 -0.171875 -0.5625 -0.421875q-0.171875 -0.25 -0.25 -0.609375q-0.046875 -0.234375 -0.046875 -0.765625l0 -3.0l0.828125 0l0 2.6875q0 0.640625 0.046875 0.875q0.078125 0.3125 0.328125 0.5q0.25 0.1875 0.609375 0.1875q0.375 0 0.703125 -0.1875q0.328125 -0.1875 0.453125 -0.515625q0.140625 -0.328125 0.140625 -0.953125l0 -2.59375l0.8125 0l0 4.84375l-0.734375 0zm3.8128662 -0.734375l0.109375 0.71875q-0.34375 0.078125 -0.609375 0.078125q-0.453125 0 -0.703125 -0.140625q-0.234375 -0.140625 -0.34375 -0.359375q-0.09375 -0.234375 -0.09375 -0.984375l0 -2.78125l-0.609375 0l0 -0.640625l0.609375 0l0 -1.1875l0.8125 -0.5l0 1.6875l0.828125 0l0 0.640625l-0.828125 0l0 2.828125q0 0.359375 0.046875 0.46875q0.046875 0.09375 0.140625 0.15625q0.09375 0.046875 0.28125 0.046875q0.140625 0 0.359375 -0.03125zm4.1073 -0.828125l0.84375 0.109375q-0.1875 0.75 -0.734375 1.15625q-0.546875 0.40625 -1.390625 0.40625q-1.0625 0 -1.6875 -0.65625q-0.609375 -0.65625 -0.609375 -1.828125q0 -1.21875 0.625 -1.890625q0.625 -0.6875 1.625 -0.6875q0.984375 0 1.59375 0.671875q0.609375 0.65625 0.609375 1.859375q0 0.0625 0 0.21875l-3.609375 0q0.046875 0.796875 0.453125 1.21875q0.40625 0.421875 1.015625 0.421875q0.453125 0 0.765625 -0.234375q0.3125 -0.234375 0.5 -0.765625zm-2.6875 -1.328125l2.703125 0q-0.0625 -0.609375 -0.3125 -0.90625q-0.390625 -0.46875 -1.015625 -0.46875q-0.5625 0 -0.953125 0.375q-0.375 0.375 -0.421875 1.0z" fill-rule="nonzero"/><path fill="#c9daf8" d="m330.71802 128.40681l69.38583 0l8.881897 8.881897l-8.881897 8.881882l-69.38583 0l8.881897 -8.881882z" fill-rule="evenodd"/><path stroke="#434343" stroke-width="1.0" stroke-linejoin="round" stroke-linecap="butt" d="m330.71802 128.40681l69.38583 0l8.881897 8.881897l-8.881897 8.881882l-69.38583 0l8.881897 -8.881882z" fill-rule="evenodd"/><path fill="#000000" d="m357.43814 139.1862l0.84375 0.109375q-0.1875 0.75 -0.734375 1.15625q-0.546875 0.40625 -1.390625 0.40625q-1.0625 0 -1.6875 -0.65625q-0.609375 -0.65625 -0.609375 -1.828125q0 -1.21875 0.625 -1.890625q0.625 -0.6875 1.625 -0.6875q0.984375 0 1.59375 0.671875q0.609375 0.65625 0.609375 1.859375q0 0.0625 0 0.21875l-3.609375 0q0.046875 0.796875 0.453125 1.21875q0.40625 0.421875 1.015625 0.421875q0.453125 0 0.765625 -0.234375q0.3125 -0.234375 0.5 -0.765625zm-2.6875 -1.328125l2.703125 0q-0.0625 -0.609375 -0.3125 -0.90625q-0.390625 -0.46875 -1.015625 -0.46875q-0.5625 0 -0.953125 0.375q-0.375 0.375 -0.421875 1.0zm4.015991 2.890625l1.765625 -2.515625l-1.625 -2.328125l1.015625 0l0.75 1.140625q0.203125 0.328125 0.34375 0.546875q0.1875 -0.3125 0.359375 -0.53125l0.8125 -1.15625l0.984375 0l-1.671875 2.28125l1.796875 2.5625l-1.0 0l-1.0 -1.5l-0.265625 -0.40625l-1.265625 1.90625l-1.0 0zm8.5234375 -1.5625l0.84375 0.109375q-0.1875 0.75 -0.734375 1.15625q-0.546875 0.40625 -1.390625 0.40625q-1.0625 0 -1.6875 -0.65625q-0.609375 -0.65625 -0.609375 -1.828125q0 -1.21875 0.625 -1.890625q0.625 -0.6875 1.625 -0.6875q0.984375 0 1.59375 0.671875q0.609375 0.65625 0.609375 1.859375q0 0.0625 0 0.21875l-3.609375 0q0.046875 0.796875 0.453125 1.21875q0.40625 0.421875 1.015625 0.421875q0.453125 0 0.765625 -0.234375q0.3125 -0.234375 0.5 -0.765625zm-2.6875 -1.328125l2.703125 0q-0.0625 -0.609375 -0.3125 -0.90625q-0.390625 -0.46875 -1.015625 -0.46875q-0.5625 0 -0.953125 0.375q-0.375 0.375 -0.421875 1.0zm7.719116 1.125l0.8125 0.09375q-0.125 0.84375 -0.671875 1.3125q-0.546875 0.46875 -1.34375 0.46875q-0.984375 0 -1.59375 -0.640625q-0.609375 -0.65625 -0.609375 -1.875q0 -0.78125 0.265625 -1.359375q0.265625 -0.59375 0.78125 -0.890625q0.53125 -0.296875 1.15625 -0.296875q0.796875 0 1.296875 0.40625q0.5 0.390625 0.640625 1.125l-0.796875 0.125q-0.109375 -0.484375 -0.40625 -0.71875q-0.28125 -0.25 -0.703125 -0.25q-0.609375 0 -1.0 0.4375q-0.390625 0.4375 -0.390625 1.40625q0 0.96875 0.375 1.421875q0.375 0.4375 0.984375 0.4375q0.46875 0 0.796875 -0.296875q0.328125 -0.296875 0.40625 -0.90625zm4.6796875 1.765625l0 -0.703125q-0.5625 0.8125 -1.53125 0.8125q-0.421875 0 -0.796875 -0.15625q-0.375 -0.171875 -0.5625 -0.421875q-0.171875 -0.25 -0.25 -0.609375q-0.046875 -0.234375 -0.046875 -0.765625l0 -3.0l0.828125 0l0 2.6875q0 0.640625 0.046875 0.875q0.078125 0.3125 0.328125 0.5q0.25 0.1875 0.609375 0.1875q0.375 0 0.703125 -0.1875q0.328125 -0.1875 0.453125 -0.515625q0.140625 -0.328125 0.140625 -0.953125l0 -2.59375l0.8125 0l0 4.84375l-0.734375 0zm3.8128662 -0.734375l0.109375 0.71875q-0.34375 0.078125 -0.609375 0.078125q-0.453125 0 -0.703125 -0.140625q-0.234375 -0.140625 -0.34375 -0.359375q-0.09375 -0.234375 -0.09375 -0.984375l0 -2.78125l-0.609375 0l0 -0.640625l0.609375 0l0 -1.1875l0.8125 -0.5l0 1.6875l0.828125 0l0 0.640625l-0.828125 0l0 2.828125q0 0.359375 0.046875 0.46875q0.046875 0.09375 0.140625 0.15625q0.09375 0.046875 0.28125 0.046875q0.140625 0 0.359375 -0.03125zm4.1072693 -0.828125l0.84375 0.109375q-0.1875 0.75 -0.734375 1.15625q-0.546875 0.40625 -1.390625 0.40625q-1.0625 0 -1.6875 -0.65625q-0.609375 -0.65625 -0.609375 -1.828125q0 -1.21875 0.625 -1.890625q0.625 -0.6875 1.625 -0.6875q0.984375 0 1.59375 0.671875q0.609375 0.65625 0.609375 1.859375q0 0.0625 0 0.21875l-3.609375 0q0.046875 0.796875 0.453125 1.21875q0.40625 0.421875 1.015625 0.421875q0.453125 0 0.765625 -0.234375q0.3125 -0.234375 0.5 -0.765625zm-2.6875 -1.328125l2.703125 0q-0.0625 -0.609375 -0.3125 -0.90625q-0.390625 -0.46875 -1.015625 -0.46875q-0.5625 0 -0.953125 0.375q-0.375 0.375 -0.421875 1.0z" fill-rule="nonzero"/><path fill="#c9daf8" d="m408.9868 128.40681l85.35431 0l8.881897 8.881897l-8.881897 8.881882l-85.35431 0l8.881866 -8.881882z" fill-rule="evenodd"/><path stroke="#434343" stroke-width="1.0" stroke-linejoin="round" stroke-linecap="butt" d="m408.9868 128.40681l85.35431 0l8.881897 8.881897l-8.881897 8.881882l-85.35431 0l8.881866 -8.881882z" fill-rule="evenodd"/><path fill="#000000" d="m428.96896 142.60808l0 -6.703125l0.75 0l0 0.640625q0.265625 -0.375 0.59375 -0.5625q0.34375 -0.1875 0.8125 -0.1875q0.625 0 1.09375 0.328125q0.46875 0.3125 0.703125 0.90625q0.25 0.578125 0.25 1.265625q0 0.734375 -0.265625 1.328125q-0.265625 0.59375 -0.78125 0.921875q-0.5 0.3125 -1.0625 0.3125q-0.40625 0 -0.734375 -0.171875q-0.328125 -0.171875 -0.53125 -0.4375l0 2.359375l-0.828125 0zm0.75 -4.25q0 0.9375 0.375 1.390625q0.375 0.4375 0.921875 0.4375q0.546875 0 0.921875 -0.453125q0.390625 -0.46875 0.390625 -1.4375q0 -0.9375 -0.375 -1.390625q-0.375 -0.453125 -0.90625 -0.453125q-0.53125 0 -0.9375 0.484375q-0.390625 0.484375 -0.390625 1.421875zm4.140991 -0.03125q0 -1.34375 0.75 -1.984375q0.625 -0.546875 1.515625 -0.546875q1.0 0 1.625 0.65625q0.640625 0.65625 0.640625 1.8125q0 0.9375 -0.28125 1.46875q-0.28125 0.53125 -0.8125 0.828125q-0.53125 0.296875 -1.171875 0.296875q-1.015625 0 -1.640625 -0.640625q-0.625 -0.65625 -0.625 -1.890625zm0.84375 0q0 0.9375 0.40625 1.40625q0.40625 0.453125 1.015625 0.453125q0.609375 0 1.015625 -0.46875q0.40625 -0.46875 0.40625 -1.421875q0 -0.890625 -0.40625 -1.34375q-0.40625 -0.46875 -1.015625 -0.46875q-0.609375 0 -1.015625 0.46875q-0.40625 0.453125 -0.40625 1.375zm4.312866 0.984375l0.8125 -0.140625q0.078125 0.5 0.390625 0.765625q0.3125 0.25 0.859375 0.25q0.578125 0 0.84375 -0.234375q0.28125 -0.234375 0.28125 -0.53125q0 -0.28125 -0.25 -0.4375q-0.171875 -0.109375 -0.84375 -0.28125q-0.890625 -0.234375 -1.25 -0.390625q-0.34375 -0.171875 -0.53125 -0.46875q-0.171875 -0.296875 -0.171875 -0.640625q0 -0.328125 0.140625 -0.59375q0.15625 -0.28125 0.40625 -0.46875q0.203125 -0.140625 0.53125 -0.234375q0.328125 -0.109375 0.703125 -0.109375q0.578125 0 1.0 0.171875q0.4375 0.15625 0.640625 0.4375q0.203125 0.28125 0.28125 0.75l-0.796875 0.109375q-0.0625 -0.375 -0.328125 -0.578125q-0.265625 -0.203125 -0.734375 -0.203125q-0.5625 0 -0.8125 0.1875q-0.234375 0.171875 -0.234375 0.4375q0 0.15625 0.09375 0.28125q0.109375 0.125 0.3125 0.21875q0.125 0.046875 0.734375 0.203125q0.859375 0.234375 1.203125 0.390625q0.34375 0.140625 0.53125 0.421875q0.203125 0.28125 0.203125 0.703125q0 0.40625 -0.234375 0.78125q-0.234375 0.359375 -0.6875 0.5625q-0.453125 0.1875 -1.015625 0.1875q-0.953125 0 -1.453125 -0.390625q-0.484375 -0.390625 -0.625 -1.15625zm6.7890625 0.703125l0.109375 0.71875q-0.34375 0.078125 -0.609375 0.078125q-0.453125 0 -0.703125 -0.140625q-0.234375 -0.140625 -0.34375 -0.359375q-0.09375 -0.234375 -0.09375 -0.984375l0 -2.78125l-0.609375 0l0 -0.640625l0.609375 0l0 -1.1875l0.8125 -0.5l0 1.6875l0.828125 0l0 0.640625l-0.828125 0l0 2.828125q0 0.359375 0.046875 0.46875q0.046875 0.09375 0.140625 0.15625q0.09375 0.046875 0.28125 0.046875q0.140625 0 0.359375 -0.03125zm0.044799805 2.59375l0 -0.59375l5.4375 0l0 0.59375l-5.4375 0zm9.250366 -3.421875l0.84375 0.109375q-0.1875 0.75 -0.734375 1.15625q-0.546875 0.40625 -1.390625 0.40625q-1.0625 0 -1.6875 -0.65625q-0.609375 -0.65625 -0.609375 -1.828125q0 -1.21875 0.625 -1.890625q0.625 -0.6875 1.625 -0.6875q0.984375 0 1.59375 0.671875q0.609375 0.65625 0.609375 1.859375q0 0.0625 0 0.21875l-3.609375 0q0.046875 0.796875 0.453125 1.21875q0.40625 0.421875 1.015625 0.421875q0.453125 0 0.765625 -0.234375q0.3125 -0.234375 0.5 -0.765625zm-2.6875 -1.328125l2.703125 0q-0.0625 -0.609375 -0.3125 -0.90625q-0.390625 -0.46875 -1.015625 -0.46875q-0.5625 0 -0.953125 0.375q-0.375 0.375 -0.421875 1.0zm4.015991 2.890625l1.765625 -2.515625l-1.625 -2.328125l1.015625 0l0.75 1.140625q0.203125 0.328125 0.34375 0.546875q0.1875 -0.3125 0.359375 -0.53125l0.8125 -1.15625l0.984375 0l-1.671875 2.28125l1.796875 2.5625l-1.0 0l-1.0 -1.5l-0.265625 -0.40625l-1.265625 1.90625l-1.0 0zm8.5234375 -1.5625l0.84375 0.109375q-0.1875 0.75 -0.734375 1.15625q-0.546875 0.40625 -1.390625 0.40625q-1.0625 0 -1.6875 -0.65625q-0.609375 -0.65625 -0.609375 -1.828125q0 -1.21875 0.625 -1.890625q0.625 -0.6875 1.625 -0.6875q0.984375 0 1.59375 0.671875q0.609375 0.65625 0.609375 1.859375q0 0.0625 0 0.21875l-3.609375 0q0.046875 0.796875 0.453125 1.21875q0.40625 0.421875 1.015625 0.421875q0.453125 0 0.765625 -0.234375q0.3125 -0.234375 0.5 -0.765625zm-2.6875 -1.328125l2.703125 0q-0.0625 -0.609375 -0.3125 -0.90625q-0.390625 -0.46875 -1.015625 -0.46875q-0.5625 0 -0.953125 0.375q-0.375 0.375 -0.421875 1.0zm7.719116 1.125l0.8125 0.09375q-0.125 0.84375 -0.671875 1.3125q-0.546875 0.46875 -1.34375 0.46875q-0.984375 0 -1.59375 -0.640625q-0.609375 -0.65625 -0.609375 -1.875q0 -0.78125 0.265625 -1.359375q0.265625 -0.59375 0.78125 -0.890625q0.53125 -0.296875 1.15625 -0.296875q0.796875 0 1.296875 0.40625q0.5 0.390625 0.640625 1.125l-0.796875 0.125q-0.109375 -0.484375 -0.40625 -0.71875q-0.28125 -0.25 -0.703125 -0.25q-0.609375 0 -1.0 0.4375q-0.390625 0.4375 -0.390625 1.40625q0 0.96875 0.375 1.421875q0.375 0.4375 0.984375 0.4375q0.46875 0 0.796875 -0.296875q0.328125 -0.296875 0.40625 -0.90625zm4.6796875 1.765625l0 -0.703125q-0.5625 0.8125 -1.53125 0.8125q-0.421875 0 -0.796875 -0.15625q-0.375 -0.171875 -0.5625 -0.421875q-0.171875 -0.25 -0.25 -0.609375q-0.046875 -0.234375 -0.046875 -0.765625l0 -3.0l0.828125 0l0 2.6875q0 0.640625 0.046875 0.875q0.078125 0.3125 0.328125 0.5q0.25 0.1875 0.609375 0.1875q0.375 0 0.703125 -0.1875q0.328125 -0.1875 0.453125 -0.515625q0.140625 -0.328125 0.140625 -0.953125l0 -2.59375l0.8125 0l0 4.84375l-0.734375 0zm3.8128662 -0.734375l0.109375 0.71875q-0.34375 0.078125 -0.609375 0.078125q-0.453125 0 -0.703125 -0.140625q-0.234375 -0.140625 -0.34375 -0.359375q-0.09375 -0.234375 -0.09375 -0.984375l0 -2.78125l-0.609375 0l0 -0.640625l0.609375 0l0 -1.1875l0.8125 -0.5l0 1.6875l0.828125 0l0 0.640625l-0.828125 0l0 2.828125q0 0.359375 0.046875 0.46875q0.046875 0.09375 0.140625 0.15625q0.09375 0.046875 0.28125 0.046875q0.140625 0 0.359375 -0.03125zm4.1072693 -0.828125l0.84375 0.109375q-0.1875 0.75 -0.734375 1.15625q-0.546875 0.40625 -1.390625 0.40625q-1.0625 0 -1.6875 -0.65625q-0.609375 -0.65625 -0.609375 -1.828125q0 -1.21875 0.625 -1.890625q0.625 -0.6875 1.625 -0.6875q0.984375 0 1.59375 0.671875q0.609375 0.65625 0.609375 1.859375q0 0.0625 0 0.21875l-3.609375 0q0.046875 0.796875 0.453125 1.21875q0.40625 0.421875 1.015625 0.421875q0.453125 0 0.765625 -0.234375q0.3125 -0.234375 0.5 -0.765625zm-2.6875 -1.328125l2.703125 0q-0.0625 -0.609375 -0.3125 -0.90625q-0.390625 -0.46875 -1.015625 -0.46875q-0.5625 0 -0.953125 0.375q-0.375 0.375 -0.421875 1.0z" fill-rule="nonzero"/></g></svg>
